<?xml version="1.0" encoding="UTF-8"?>
<svg version="1.1" xmlns="http://www.w3.org/2000/svg" width="721" height="138">
<path d="M0 0 C1.10774529 -0.00306656 1.10774529 -0.00306656 2.23786926 -0.00619507 C4.67958311 -0.0092039 7.12062225 0.00927545 9.56225586 0.02832031 C11.25711398 0.03137768 12.95197461 0.03325397 14.64683533 0.03399658 C18.19857398 0.03860017 21.75008598 0.05302896 25.30175781 0.07519531 C29.86062645 0.10349925 34.41931665 0.11440892 38.97826481 0.11887741 C42.47747085 0.12302862 45.97664061 0.13284325 49.47582817 0.1447525 C51.15719753 0.15046014 52.83857039 0.15521721 54.51994514 0.15901947 C56.86622408 0.16587351 59.21236024 0.17950129 61.55859375 0.1953125 C62.60672241 0.19698929 62.60672241 0.19698929 63.67602539 0.19869995 C68.48520884 0.24174993 68.48520884 0.24174993 70.71459961 1.35644531 C72.05974958 5.39189523 71.93802094 9.13043677 71.96459961 13.35644531 C71.98522461 14.17628906 72.00584961 14.99613281 72.02709961 15.84082031 C72.03483398 17.02417969 72.03483398 17.02417969 72.04272461 18.23144531 C72.05207031 18.95074219 72.06141602 19.67003906 72.07104492 20.41113281 C71.59735839 22.99629329 70.77201796 23.74248941 68.71459961 25.35644531 C66.41767883 25.75517273 66.41767883 25.75517273 63.69238281 25.78881836 C62.67155106 25.80861252 61.6507193 25.82840668 60.59895325 25.84880066 C58.94883492 25.85838554 58.94883492 25.85838554 57.26538086 25.86816406 C55.57375069 25.89509087 55.57375069 25.89509087 53.84794617 25.92256165 C50.24103551 25.97680384 46.63425823 26.01060566 43.02709961 26.04394531 C40.58372162 26.07710602 38.14036126 26.1115945 35.69702148 26.14746094 C29.70286016 26.23504128 23.70931407 26.29499366 17.71459961 26.35644531 C17.71459961 33.94644531 17.71459961 41.53644531 17.71459961 49.35644531 C22.30108398 49.30423828 22.30108398 49.30423828 26.98022461 49.25097656 C29.94229193 49.22757895 32.90434896 49.20936351 35.86645508 49.19165039 C37.9247702 49.17656581 39.98305319 49.15609544 42.04125977 49.13012695 C45.00016205 49.09372946 47.95863928 49.07671565 50.91772461 49.06347656 C51.83765198 49.04799271 52.75757935 49.03250885 53.7053833 49.01655579 C60.00503954 49.01489709 60.00503954 49.01489709 63.30029297 50.60107422 C65.07499241 52.80374796 65.19375982 53.92573078 65.14038086 56.73535156 C65.1278125 57.9931543 65.1278125 57.9931543 65.11499023 59.27636719 C65.08598633 60.14841797 65.05698242 61.02046875 65.02709961 61.91894531 C65.01743164 62.79486328 65.00776367 63.67078125 64.99780273 64.57324219 C64.88368755 71.01826943 64.88368755 71.01826943 63.71459961 73.35644531 C48.53459961 73.68644531 33.35459961 74.01644531 17.71459961 74.35644531 C17.60132063 87.40002971 17.60132063 87.40002971 18.71459961 100.35644531 C19.33212097 100.36009094 19.94964233 100.36373657 20.58587646 100.36749268 C27.01002714 100.40928561 33.43346122 100.47860861 39.85717773 100.56396484 C42.25489131 100.59219997 44.6526984 100.61340177 47.05053711 100.62744141 C50.49633758 100.64883503 53.94101056 100.69546912 57.38647461 100.74707031 C58.99604034 100.74891327 58.99604034 100.74891327 60.63812256 100.75079346 C62.13922577 100.7803714 62.13922577 100.7803714 63.6706543 100.81054688 C64.55001648 100.81942932 65.42937866 100.82831177 66.33538818 100.83746338 C69.51171525 101.53032167 70.7353264 102.82313215 72.71459961 105.35644531 C72.92163086 108.66894531 72.92163086 108.66894531 72.52709961 112.35644531 C72.40979492 113.57332031 72.29249023 114.79019531 72.17163086 116.04394531 C71.44975438 121.27600733 71.44975438 121.27600733 70.71459961 123.35644531 C67.71995098 124.85376963 64.99022025 124.48382514 61.65039062 124.48583984 C60.55990417 124.48846832 60.55990417 124.48846832 59.4473877 124.4911499 C57.03773632 124.49556077 54.62815802 124.49263281 52.21850586 124.48925781 C50.54703253 124.48993114 48.8755593 124.49090142 47.2040863 124.49215698 C43.69773427 124.49363298 40.19140768 124.49148281 36.68505859 124.48681641 C32.18792726 124.48112358 27.69085567 124.48439591 23.19372654 124.49038887 C19.74081471 124.49400088 16.28791706 124.49285287 12.83500481 124.49026108 C11.17678762 124.48959335 9.51856916 124.49041485 7.86035347 124.49274063 C5.5429353 124.49527713 3.22561407 124.49141224 0.90820312 124.48583984 C-0.41146957 124.48504425 -1.73114227 124.48424866 -3.09080505 124.48342896 C-6.28540039 124.35644531 -6.28540039 124.35644531 -9.28540039 123.35644531 C-10.23649845 116.94310944 -10.43939023 110.69269503 -10.4465332 104.21459961 C-10.45149811 103.12585037 -10.45646301 102.03710114 -10.46157837 100.9153595 C-10.47610881 97.33712115 -10.48298333 93.75892698 -10.48852539 90.18066406 C-10.49428015 87.68821716 -10.50003785 85.19577026 -10.50579834 82.70332336 C-10.51627936 77.49093419 -10.52214237 72.27856033 -10.52563477 67.06616211 C-10.52941393 61.70900392 -10.54357215 56.35198216 -10.56665039 50.99487305 C-10.59410947 44.52120771 -10.60703817 38.04767561 -10.60897064 31.57395363 C-10.6120036 29.10631003 -10.62005362 26.63866743 -10.63315582 24.17105675 C-10.65013221 20.7309847 -10.64835767 17.2914148 -10.6418457 13.85131836 C-10.65106049 12.82738983 -10.66027527 11.8034613 -10.66976929 10.74850464 C-10.66420013 9.81355667 -10.65863098 8.8786087 -10.65289307 7.91532898 C-10.65435963 7.10255839 -10.65582619 6.28978781 -10.65733719 5.45238781 C-9.62104886 -0.38731602 -4.94593764 -0.06541394 0 0 Z " fill="#F1F1F1" transform="translate(538.285400390625,4.6435546875)"/>
<path d="M0 0 C1.15466766 -0.0033284 2.30933533 -0.0066568 3.49899292 -0.01008606 C5.91403814 -0.0151085 8.32909019 -0.01749585 10.74414062 -0.01733398 C14.45453951 -0.01954607 18.16465256 -0.03782002 21.875 -0.05664062 C24.22916565 -0.05957036 26.58333271 -0.06155796 28.9375 -0.0625 C30.04884308 -0.06968552 31.16018616 -0.07687103 32.3052063 -0.08427429 C33.83853104 -0.07965935 33.83853104 -0.07965935 35.40283203 -0.07495117 C36.30373566 -0.07637619 37.20463928 -0.07780121 38.13284302 -0.07926941 C40.3046875 0.16796875 40.3046875 0.16796875 42.3046875 2.16796875 C43.7610064 9.61137646 39.31832551 15.18014294 35.3046875 21.16796875 C34.41523438 22.55628906 34.41523438 22.55628906 33.5078125 23.97265625 C28.95988898 28.50445239 21.04062186 27.30110399 14.92578125 27.30859375 C13.09829494 27.3269333 11.27082066 27.34650466 9.44335938 27.3671875 C6.60225108 27.39598664 3.76191746 27.41796534 0.9206543 27.41845703 C-14.08349254 27.4367883 -27.37839916 28.10825799 -38.6953125 39.16796875 C-39.3553125 39.16796875 -40.0153125 39.16796875 -40.6953125 39.16796875 C-40.9634375 39.97234375 -41.2315625 40.77671875 -41.5078125 41.60546875 C-42.095625 43.36890625 -42.095625 43.36890625 -42.6953125 45.16796875 C-43.07429688 46.32232422 -43.07429688 46.32232422 -43.4609375 47.5 C-43.72390625 48.29792969 -43.986875 49.09585938 -44.2578125 49.91796875 C-44.50660156 50.6759375 -44.75539063 51.43390625 -45.01171875 52.21484375 C-45.6953125 54.16796875 -45.6953125 54.16796875 -46.6953125 56.16796875 C-47.82919207 67.77889557 -47.16535954 77.77519865 -41.0703125 87.85546875 C-26.07233564 102.458762 -8.52209329 100.6149433 11.07885742 100.45288086 C14.29926936 100.43221435 17.51790655 100.44813917 20.73828125 100.46875 C21.72477158 100.4502449 22.7112619 100.43173981 23.72764587 100.41267395 C30.41802554 100.4844084 30.41802554 100.4844084 33.01573181 102.48707581 C34.37060547 104.09912109 34.37060547 104.09912109 36.3046875 107.16796875 C36.80355469 107.76222656 37.30242187 108.35648437 37.81640625 108.96875 C41.18893004 113.30485202 43.01558494 117.63219009 43.3046875 123.16796875 C42.4921875 125.66796875 42.4921875 125.66796875 40.3046875 127.16796875 C33.02738935 128.2997666 25.87670236 128.25019983 18.52734375 128.1171875 C17.3208165 128.09831985 16.11428925 128.07945221 14.87120056 128.06001282 C12.33050588 128.01831327 9.78985912 127.97359597 7.24926758 127.92602539 C3.38306739 127.85575737 -0.48314313 127.80138931 -4.34960938 127.74804688 C-6.82814186 127.70539557 -9.30665842 127.66180685 -11.78515625 127.6171875 C-12.93024155 127.60249924 -14.07532684 127.58781097 -15.25511169 127.57267761 C-29.79839164 127.2648851 -43.32269817 123.92795276 -54.2578125 113.79296875 C-55.0621875 112.92671875 -55.8665625 112.06046875 -56.6953125 111.16796875 C-57.20449219 110.73613281 -57.71367188 110.30429688 -58.23828125 109.859375 C-69.43625252 99.99388544 -75.95047345 83.86172936 -76.96875 69.2421875 C-77.43873002 54.84535186 -75.25201919 40.54288878 -65.6953125 29.16796875 C-65.00566406 28.33136719 -64.31601563 27.49476562 -63.60546875 26.6328125 C-59.76606828 22.14078338 -59.76606828 22.14078338 -57.6953125 20.16796875 C-57.0353125 20.16796875 -56.3753125 20.16796875 -55.6953125 20.16796875 C-55.6953125 19.50796875 -55.6953125 18.84796875 -55.6953125 18.16796875 C-49.25049275 11.70609921 -40.87415538 7.92187286 -32.6953125 4.16796875 C-31.95152344 3.81476562 -31.20773438 3.4615625 -30.44140625 3.09765625 C-21.15662753 -0.89538011 -9.91176925 0.0101091 0 0 Z " fill="#E4405C" transform="translate(95.6953125,3.83203125)"/>
<path d="M0 0 C1.010625 0.763125 2.02125 1.52625 3.0625 2.3125 C3.0625 2.9725 3.0625 3.6325 3.0625 4.3125 C3.619375 4.498125 4.17625 4.68375 4.75 4.875 C10.63573158 8.53369801 13.847424 15.95523188 16.0625 22.3125 C16.61686631 25.13052873 16.94433201 27.48631566 17.0625 30.3125 C17.13984375 31.79363281 17.13984375 31.79363281 17.21875 33.3046875 C17.5172433 43.47833403 17.5172433 43.47833403 14.0625 47.3125 C11.22175488 48.34847882 8.36507723 48.73989571 5.375 49.125 C4.17907227 49.30579102 4.17907227 49.30579102 2.95898438 49.49023438 C0.9963406 49.78404332 -0.97030199 50.05091583 -2.9375 50.3125 C-0.92797881 53.25848261 -0.92797881 53.25848261 1.9375 55.25 C4.89258156 56.72754078 6.80437041 58.93230936 9.0625 61.3125 C9.3925 61.6425 9.7225 61.9725 10.0625 62.3125 C10.56805334 65.34582007 10.61531116 67.44215718 8.93359375 70.08984375 C3.53263711 76.53432726 -1.71522791 80.85578409 -9.8125 83.125 C-10.5542749 83.33366699 -11.2960498 83.54233398 -12.06030273 83.75732422 C-25.59766514 87.27333587 -38.20556429 85.84267339 -50.9375 80.3125 C-54.31695655 78.29727166 -57.10606101 76.03255733 -59.9375 73.3125 C-60.57042969 72.755625 -61.20335937 72.19875 -61.85546875 71.625 C-69.59706592 64.49414717 -74.7714393 54.28188462 -75.37109375 43.69921875 C-75.39478459 42.13299112 -75.39560883 40.56627121 -75.375 39 C-75.36597656 38.17113281 -75.35695312 37.34226563 -75.34765625 36.48828125 C-74.98479789 23.54633299 -70.19381767 13.22888207 -60.76953125 4.24609375 C-42.68448552 -10.57404107 -19.96269129 -11.76748118 0 0 Z M-39.9375 18.3125 C-39.9375 18.9725 -39.9375 19.6325 -39.9375 20.3125 C-40.5975 20.3125 -41.2575 20.3125 -41.9375 20.3125 C-42.618125 21.42625 -43.29875 22.54 -44 23.6875 C-44.38285156 24.31398438 -44.76570313 24.94046875 -45.16015625 25.5859375 C-45.41667969 26.15570313 -45.67320312 26.72546875 -45.9375 27.3125 C-45.6075 27.9725 -45.2775 28.6325 -44.9375 29.3125 C-40.58334756 29.34168634 -36.22922052 29.35936145 -31.875 29.375 C-30.64587891 29.38337891 -29.41675781 29.39175781 -28.15039062 29.40039062 C-22.30963863 29.41613389 -16.68552983 29.39719508 -10.9375 28.3125 C-11.48473683 24.93787285 -11.9924 23.23015 -13.9375 20.3125 C-14.5975 20.3125 -15.2575 20.3125 -15.9375 20.3125 C-15.9375 19.6525 -15.9375 18.9925 -15.9375 18.3125 C-23.57763497 13.35673678 -32.17533862 14.1726806 -39.9375 18.3125 Z M-44.9375 48.3125 C-45.2675 48.9725 -45.5975 49.6325 -45.9375 50.3125 C-44.90877935 51.59383549 -43.86377562 52.86210397 -42.8125 54.125 C-42.23242188 54.83269531 -41.65234375 55.54039063 -41.0546875 56.26953125 C-36.48526798 60.67876817 -32.17410264 61.72853028 -25.9375 61.6875 C-24.761875 61.69523437 -23.58625 61.70296875 -22.375 61.7109375 C-15.98114599 60.96983169 -12.15925924 58.0033436 -7.9375 53.3125 C-7.2775 52.3225 -6.6175 51.3325 -5.9375 50.3125 C-9.72592473 47.78688352 -12.72283329 48.05858427 -17.10546875 48.1171875 C-17.90028152 48.1200174 -18.6950943 48.12284729 -19.51399231 48.12576294 C-22.05114838 48.13695295 -24.58795072 48.16205509 -27.125 48.1875 C-28.84569802 48.19753134 -30.56640159 48.20665692 -32.28710938 48.21484375 C-36.50404243 48.23688839 -40.72071125 48.27140994 -44.9375 48.3125 Z " fill="#F4F3F3" transform="translate(325.9375,46.6875)"/>
<path d="M0 0 C8.29368341 6.27224247 10.71796837 15.12130757 12.2355957 25.00073242 C13.35986331 33.85059684 13.17264364 42.78733651 13.0859375 51.69165039 C13.05430202 54.97358396 13.04490465 58.25503717 13.0390625 61.53710938 C13.02990834 63.63412047 13.0195377 65.7311267 13.0078125 67.828125 C13.00356262 68.80409134 12.99931274 69.78005768 12.99493408 70.78559875 C12.98532654 71.69142197 12.97571899 72.59724518 12.96582031 73.53051758 C12.95899231 74.32307449 12.95216431 75.11563141 12.94512939 75.9322052 C12.80340821 78.14103236 12.52941066 80.0284781 11.8046875 82.12109375 C8.02868174 84.00909663 3.4597018 83.34913859 -0.6953125 83.37109375 C-2.15904297 83.40203125 -2.15904297 83.40203125 -3.65234375 83.43359375 C-4.58433594 83.43875 -5.51632812 83.44390625 -6.4765625 83.44921875 C-7.33314453 83.45856445 -8.18972656 83.46791016 -9.07226562 83.47753906 C-9.77287109 83.35991211 -10.47347656 83.24228516 -11.1953125 83.12109375 C-16.83085981 74.66777278 -14.26217779 60.38000008 -14.09936523 50.53637695 C-13.94119602 40.25786918 -14.14512715 30.68990917 -18.1953125 21.12109375 C-18.8553125 21.12109375 -19.5153125 21.12109375 -20.1953125 21.12109375 C-20.1953125 20.46109375 -20.1953125 19.80109375 -20.1953125 19.12109375 C-26.7953125 19.12109375 -33.3953125 19.12109375 -40.1953125 19.12109375 C-40.1953125 19.78109375 -40.1953125 20.44109375 -40.1953125 21.12109375 C-40.8553125 21.12109375 -41.5153125 21.12109375 -42.1953125 21.12109375 C-42.3190625 21.63671875 -42.4428125 22.15234375 -42.5703125 22.68359375 C-43.1953125 25.12109375 -43.1953125 25.12109375 -44.21289062 28.06518555 C-45.65596788 33.12703004 -45.51226496 38.2256868 -45.5390625 43.453125 C-45.5536853 44.52608322 -45.56830811 45.59904144 -45.58337402 46.70451355 C-45.6454705 51.27611704 -45.68542758 55.84784915 -45.72705078 60.41967773 C-45.76066515 63.7643073 -45.80577814 67.10864356 -45.8515625 70.453125 C-45.8568396 71.49265823 -45.8621167 72.53219147 -45.86755371 73.60322571 C-45.88096802 74.56149765 -45.89438232 75.51976959 -45.90820312 76.50708008 C-45.91549438 77.35200516 -45.92278564 78.19693024 -45.93029785 79.06745911 C-46.1953125 81.12109375 -46.1953125 81.12109375 -48.1953125 83.12109375 C-51.82070128 83.60007817 -55.4793603 83.49147205 -59.1328125 83.49609375 C-60.14794922 83.52058594 -61.16308594 83.54507813 -62.20898438 83.5703125 C-63.18287109 83.57417969 -64.15675781 83.57804687 -65.16015625 83.58203125 C-66.50001587 83.59435791 -66.50001587 83.59435791 -67.86694336 83.60693359 C-70.1953125 83.12109375 -70.1953125 83.12109375 -71.8165741 81.57511902 C-73.70712817 78.21010978 -73.61480055 75.12863044 -73.58349609 71.37084961 C-73.58875305 70.59479874 -73.59401001 69.81874786 -73.59942627 69.0191803 C-73.61261394 66.45789374 -73.60389365 63.89723021 -73.59375 61.3359375 C-73.59577089 59.55522034 -73.59868245 57.77450399 -73.60244751 55.99378967 C-73.60686901 52.26392732 -73.60044467 48.53428063 -73.58642578 44.80444336 C-73.56932152 40.02023911 -73.57918393 35.23653928 -73.59714317 30.45235348 C-73.60797514 26.77637418 -73.6045376 23.10051482 -73.5967598 19.42453194 C-73.5947568 17.66025292 -73.59722053 15.89596306 -73.60419846 14.1316967 C-73.61180474 11.66815132 -73.60022147 9.20542744 -73.58349609 6.74194336 C-73.58956879 6.01095428 -73.59564148 5.27996521 -73.60189819 4.52682495 C-73.53984871 -0.39838947 -73.53984871 -0.39838947 -71.79638672 -2.82995605 C-68.53638601 -4.96575859 -64.59085339 -4.34754435 -60.8203125 -4.31640625 C-59.54414063 -4.34637695 -59.54414063 -4.34637695 -58.2421875 -4.37695312 C-52.85123295 -4.37275456 -50.21222674 -3.76500145 -46.1953125 0.12109375 C-41.99209585 0.12109375 -38.16276119 -2.17989737 -34.38671875 -3.890625 C-22.22644596 -9.37466959 -11.3635433 -6.68198573 0 0 Z " fill="#FAFAFA" transform="translate(428.1953125,45.87890625)"/>
<path d="M0 0 C0.65725571 -0.00540298 1.31451141 -0.01080597 1.99168396 -0.01637268 C4.16426642 -0.02887953 6.33552842 -0.0123564 8.50805664 0.00561523 C10.01876393 0.00546027 11.52947163 0.00397173 13.04017639 0.00120544 C16.20697599 -0.00017947 19.3733232 0.01239282 22.54003906 0.03515625 C26.59670083 0.06351741 30.65260946 0.06081166 34.70932674 0.04806614 C37.82949743 0.04110563 40.9494945 0.0489028 44.06964302 0.06132317 C45.5651438 0.0658358 47.06066324 0.0661761 48.5561657 0.06225777 C50.64850821 0.05934238 52.73981919 0.07586687 54.83203125 0.09765625 C56.6171537 0.10576073 56.6171537 0.10576073 58.43833923 0.11402893 C61.76173444 0.53751867 63.18714239 1.08088588 65.48071289 3.50170898 C65.77713858 6.21400402 65.86132479 8.49910631 65.73071289 11.18920898 C65.71266602 11.89110352 65.69461914 12.59299805 65.67602539 13.31616211 C65.62897502 15.04526334 65.55723162 16.77366104 65.48071289 18.50170898 C64.82071289 18.50170898 64.16071289 18.50170898 63.48071289 18.50170898 C63.14620117 19.54391602 63.14620117 19.54391602 62.80493164 20.60717773 C61.16989713 24.18110272 58.86260331 26.89056849 56.29321289 29.81420898 C55.79998535 30.38526367 55.30675781 30.95631836 54.79858398 31.54467773 C53.81454739 32.68215841 52.82763235 33.81715626 51.83764648 34.94946289 C50.67677573 36.27742552 49.52506249 37.61338394 48.37524414 38.95092773 C45.94729625 41.76477463 43.51697206 44.46631313 40.85571289 47.06420898 C38.46562562 49.51719329 36.62161799 52.05112869 34.67602539 54.85327148 C33.13392611 56.97995742 31.46966591 58.78709431 29.48071289 60.50170898 C28.82071289 60.50170898 28.16071289 60.50170898 27.48071289 60.50170898 C27.15071289 61.82170898 26.82071289 63.14170898 26.48071289 64.50170898 C28.03967285 64.53143799 28.03967285 64.53143799 29.63012695 64.56176758 C33.49186125 64.63793022 37.35322399 64.72663099 41.21459961 64.8190918 C42.8847723 64.85733755 44.55502612 64.89219813 46.2253418 64.92358398 C48.62846846 64.9693306 51.03103873 65.02730823 53.43383789 65.08764648 C54.17877502 65.09919769 54.92371216 65.1107489 55.69122314 65.12265015 C62.43838462 65.31405417 62.43838462 65.31405417 65.48071289 67.50170898 C67.22352666 73.18433812 66.71073471 79.76160717 65.48071289 85.50170898 C61.81806515 87.94347415 60.03740932 87.76021301 55.67016602 87.77636719 C54.9820433 87.78147812 54.29392059 87.78658905 53.58494568 87.79185486 C51.31052961 87.80575423 49.03641638 87.80479409 46.76196289 87.80249023 C45.18159879 87.80637658 43.60123573 87.81071112 42.02087402 87.81547546 C38.70878716 87.82293811 35.3968069 87.82264581 32.0847168 87.81738281 C27.83744935 87.81158373 23.59061736 87.82852923 19.34342194 87.85172749 C16.08007246 87.86644776 12.81682833 87.86733895 9.55345154 87.86421776 C7.98733151 87.86473169 6.42120569 87.86998291 4.8551178 87.88002968 C2.66687567 87.89234613 0.47948788 87.88563254 -1.70874023 87.87402344 C-2.95433716 87.87465286 -4.19993408 87.87528229 -5.48327637 87.87593079 C-8.51928711 87.50170898 -8.51928711 87.50170898 -10.4107666 86.15202332 C-12.06428632 83.69033924 -12.08074773 81.4974466 -12.26928711 78.56420898 C-12.38530273 77.00379883 -12.38530273 77.00379883 -12.50366211 75.41186523 C-12.51739469 72.85417263 -12.28866229 70.92057791 -11.51928711 68.50170898 C-10.85928711 68.50170898 -10.19928711 68.50170898 -9.51928711 68.50170898 C-9.2962793 67.7862793 -9.07327148 67.07084961 -8.84350586 66.33374023 C-7.20978571 62.83979597 -5.12000392 60.84666804 -2.33178711 58.18920898 C5.29047804 50.79254999 11.88089799 42.81052859 18.48071289 34.50170898 C20.96934895 31.37644509 23.11325028 28.74668406 26.48071289 26.50170898 C27.20453756 24.44245759 27.20453756 24.44245759 27.48071289 22.50170898 C26.4664624 22.51741943 25.45221191 22.53312988 24.40722656 22.54931641 C20.64461202 22.60361217 16.88203211 22.63805749 13.11914062 22.66650391 C11.49050066 22.68159142 9.86190133 22.70206405 8.23339844 22.72802734 C5.89255754 22.76441347 3.5522537 22.78143519 1.21118164 22.79467773 C0.11884468 22.81790352 0.11884468 22.81790352 -0.99555969 22.84159851 C-6.00624647 22.84326702 -6.00624647 22.84326702 -8.47753906 21.19799805 C-10.22348586 18.35505491 -9.95003226 15.29433049 -9.89428711 12.06420898 C-9.90202148 10.74549805 -9.90975586 9.42678711 -9.91772461 8.06811523 C-9.15333415 1.22607122 -6.63334259 0.00092682 0 0 Z " fill="#F9F9F8" transform="translate(632.519287109375,41.498291015625)"/>
<path d="M0 0 C1.59112769 3.18225539 1.33732786 5.45805748 1 9 C-0.04288195 11.25885634 -1.27390125 13.33076361 -2.55859375 15.4609375 C-5.80567158 21.1807223 -8.5916806 27.55540796 -10 34 C-10.66 34 -11.32 34 -12 34 C-12.15855469 34.65484375 -12.31710938 35.3096875 -12.48046875 35.984375 C-14.11623806 42.38285385 -16.25757615 48.32557481 -18.9140625 54.37109375 C-19.83068749 56.59011756 -20.50182909 58.65859671 -21 61 C-21.66 61 -22.32 61 -23 61 C-23.226875 62.258125 -23.45375 63.51625 -23.6875 64.8125 C-24.96512388 70.59831098 -27.40409285 75.70172895 -30 81 C-30.31582031 81.65871094 -30.63164062 82.31742187 -30.95703125 82.99609375 C-32.8171729 86.8171729 -32.8171729 86.8171729 -34 88 C-38.28356071 88.33685178 -42.57989785 88.3250041 -46.875 88.375 C-48.69064453 88.43107422 -48.69064453 88.43107422 -50.54296875 88.48828125 C-51.70183594 88.49988281 -52.86070312 88.51148438 -54.0546875 88.5234375 C-55.65546143 88.5531665 -55.65546143 88.5531665 -57.28857422 88.58349609 C-60 88 -60 88 -61.77294922 85.66113281 C-62.17787598 84.78295898 -62.58280273 83.90478516 -63 83 C-63.52078125 81.97648437 -64.0415625 80.95296875 -64.578125 79.8984375 C-68.23342317 72.19498201 -71.41280888 64.43976475 -74.29931641 56.41723633 C-77.62655192 47.18160905 -81.29876257 38.09093639 -85 29 C-85.48726562 27.79730469 -85.97453125 26.59460938 -86.4765625 25.35546875 C-88.2566826 21.01437831 -90.0680436 16.80885374 -92.3125 12.6875 C-94.19021863 9.06077732 -94.40997871 6.09978711 -94 2 C-93.67 1.34 -93.34 0.68 -93 0 C-88.87501462 -0.02892385 -84.75005515 -0.04677267 -80.625 -0.0625 C-78.8615625 -0.07506836 -78.8615625 -0.07506836 -77.0625 -0.08789062 C-75.38027344 -0.09272461 -75.38027344 -0.09272461 -73.6640625 -0.09765625 C-72.10872803 -0.10551147 -72.10872803 -0.10551147 -70.52197266 -0.11352539 C-68 0 -68 0 -66 1 C-64.80816732 3.69588348 -63.72344154 6.36940671 -62.6875 9.125 C-62.37699707 9.93598145 -62.06649414 10.74696289 -61.74658203 11.58251953 C-59.37604489 17.83745776 -57.26366078 24.15347637 -55.1875 30.51171875 C-51.72703808 40.84375878 -51.72703808 40.84375878 -46 50 C-45.80365967 49.46109131 -45.60731934 48.92218262 -45.4050293 48.36694336 C-44.50120305 45.88972109 -43.5943725 43.41360862 -42.6875 40.9375 C-42.37876953 40.08994141 -42.07003906 39.24238281 -41.75195312 38.36914062 C-40.38342589 34.6381032 -39.00298376 30.9280579 -37.421875 27.28125 C-36.0315315 24.072765 -34.78529004 20.83797365 -33.5625 17.5625 C-28.23447027 3.78256598 -28.23447027 3.78256598 -24.375 1.3359375 C-20.52898257 -0.1864444 -17.02038598 -0.58988682 -12.9375 -0.75 C-12.24333984 -0.79253906 -11.54917969 -0.83507813 -10.83398438 -0.87890625 C-7.08093076 -1.07137054 -3.60924103 -1.11893295 0 0 Z " fill="#FCFBFB" transform="translate(248,41)"/>
<path d="M0 0 C1.28648437 -0.0103125 2.57296875 -0.020625 3.8984375 -0.03125 C8.40134987 0.61067461 11.3995416 2.2745416 14.625 5.5 C14.78120555 6.91327947 14.87556173 8.3335459 14.94140625 9.75390625 C14.98330078 10.60791016 15.02519531 11.46191406 15.06835938 12.34179688 C15.10767578 13.23962891 15.14699219 14.13746094 15.1875 15.0625 C15.23068359 15.96419922 15.27386719 16.86589844 15.31835938 17.79492188 C15.42478142 20.02978485 15.52679988 22.26476308 15.625 24.5 C16.75679688 24.56058594 17.88859375 24.62117188 19.0546875 24.68359375 C20.53647145 24.76799917 22.0182416 24.85264717 23.5 24.9375 C24.24636719 24.97681641 24.99273437 25.01613281 25.76171875 25.05664062 C31.3984375 25.38671875 31.3984375 25.38671875 33.625 26.5 C34.71797009 29.77891028 34.89733095 32.42374051 35 35.875 C35.04898438 36.99648438 35.09796875 38.11796875 35.1484375 39.2734375 C34.4483798 43.58871853 33.0400842 44.82175703 29.625 47.5 C26.7862599 47.86771245 24.60679849 47.98630804 21.8125 47.8125 C21.11962891 47.78994141 20.42675781 47.76738281 19.71289062 47.74414062 C18.01598427 47.68562661 16.32020139 47.5959548 14.625 47.5 C14.74320571 52.99941599 14.86745121 58.49864965 14.99731445 63.99780273 C15.04064622 65.86885866 15.08232257 67.73995369 15.12231445 69.61108398 C15.18005949 72.29943631 15.24374181 74.98759215 15.30859375 77.67578125 C15.32530624 78.51337479 15.34201874 79.35096832 15.35923767 80.21394348 C15.44414061 83.53673288 15.56750673 86.32752018 16.625 89.5 C17.28886719 89.47679688 17.95273437 89.45359375 18.63671875 89.4296875 C19.96123047 89.40261719 19.96123047 89.40261719 21.3125 89.375 C22.18261719 89.35179688 23.05273438 89.32859375 23.94921875 89.3046875 C27.01506849 89.52847215 28.97284597 89.9214452 31.625 91.5 C32.734375 94.14453125 32.734375 94.14453125 33.375 97.3125 C33.59671875 98.35019531 33.8184375 99.38789062 34.046875 100.45703125 C34.23765625 101.46121094 34.4284375 102.46539062 34.625 103.5 C34.81578125 104.45261719 35.0065625 105.40523438 35.203125 106.38671875 C35.41195312 107.43279297 35.41195312 107.43279297 35.625 108.5 C28.68486264 113.8385672 21.21845151 115.01278833 12.5546875 114.90234375 C7.194667 114.16623427 2.451287 111.85839504 -2.375 109.5 C-2.375 108.84 -2.375 108.18 -2.375 107.5 C-2.98988281 107.26667969 -3.60476563 107.03335938 -4.23828125 106.79296875 C-6.97453774 105.13720842 -7.44946834 103.77907009 -8.5625 100.8125 C-8.88605469 99.98363281 -9.20960938 99.15476562 -9.54296875 98.30078125 C-11.41690705 91.99273543 -11.56138113 85.59253897 -11.69140625 79.06640625 C-11.71218735 78.18846909 -11.73296844 77.31053192 -11.75437927 76.4059906 C-11.81931945 73.62490015 -11.87849927 70.84372215 -11.9375 68.0625 C-11.98073814 66.16730896 -12.02435405 64.2721265 -12.06835938 62.37695312 C-12.17494322 57.75138987 -12.27636408 53.12573929 -12.375 48.5 C-13.27863281 48.39042969 -14.18226563 48.28085938 -15.11328125 48.16796875 C-16.29277344 48.00941406 -17.47226562 47.85085937 -18.6875 47.6875 C-19.85925781 47.53667969 -21.03101563 47.38585938 -22.23828125 47.23046875 C-25.38989261 46.49653186 -26.53838984 46.09675267 -28.375 43.5 C-29.50265234 38.67909703 -29.5162443 33.84182083 -29 28.9375 C-27.06941055 26.04161582 -26.3467545 25.95255096 -23.0625 25.1875 C-21.50260878 24.94120139 -19.93984388 24.7125729 -18.375 24.5 C-16.70656251 24.17564642 -15.03936218 23.84465553 -13.375 23.5 C-13.33536133 22.94538086 -13.29572266 22.39076172 -13.25488281 21.81933594 C-13.06374309 19.29439077 -12.84467628 16.77261593 -12.625 14.25 C-12.5321875 12.94095703 -12.5321875 12.94095703 -12.4375 11.60546875 C-12.09145837 7.82784767 -11.79422387 5.1683279 -9.7578125 1.921875 C-6.41576113 -0.07239828 -3.87178249 -0.03091244 0 0 Z " fill="#FCFBFB" transform="translate(478.375,16.5)"/>
<path d="M0 0 C1.23115036 -0.00637985 2.46230072 -0.0127597 3.73075867 -0.01933289 C5.70445183 -0.02100212 5.70445183 -0.02100212 7.71801758 -0.02270508 C9.09231094 -0.02592146 10.46660396 -0.02928581 11.84089661 -0.03279114 C14.71132197 -0.03875876 17.58171731 -0.04063325 20.45214844 -0.04003906 C24.13089093 -0.03993704 27.80944214 -0.05364061 31.48813915 -0.07081127 C34.32168974 -0.08191882 37.15519368 -0.08395873 39.98876381 -0.08342934 C41.34555031 -0.08460935 42.70233802 -0.08903236 44.05910301 -0.0967617 C45.95213717 -0.10654504 47.84522782 -0.10242359 49.73828125 -0.09765625 C50.81494553 -0.09908127 51.8916098 -0.10050629 53.00090027 -0.10197449 C55.67504883 0.14526367 55.67504883 0.14526367 58.67504883 2.14526367 C59.19385646 6.10385917 58.80826006 10.10176687 58.61254883 14.08276367 C58.58483398 15.19329102 58.55711914 16.30381836 58.52856445 17.44799805 C58.45992187 19.04417969 58.45992187 19.04417969 58.38989258 20.67260742 C58.32983032 22.13815063 58.32983032 22.13815063 58.26855469 23.63330078 C57.67504883 26.14526367 57.67504883 26.14526367 55.97869873 27.7789917 C53.17396062 29.44245413 51.47078191 29.51971009 48.22314453 29.51757812 C47.13133377 29.52380692 46.03952301 29.53003571 44.91462708 29.53645325 C43.73857407 29.5272435 42.56252106 29.51803375 41.35083008 29.50854492 C40.13485641 29.50904343 38.91888275 29.50954193 37.6660614 29.51005554 C35.09132251 29.50771441 32.51658137 29.49798368 29.94189453 29.48144531 C26.0200527 29.45795833 22.09889576 29.46087157 18.17700195 29.4675293 C15.67244064 29.46194871 13.16788218 29.45483645 10.66333008 29.44604492 C8.9144323 29.44741203 8.9144323 29.44741203 7.13020325 29.44880676 C-8.9021457 29.31082872 -8.9021457 29.31082872 -13.36914062 25.31811523 C-14.46864955 22.81859303 -14.67034431 21.10570685 -14.61791992 18.37963867 C-14.60825195 17.49018555 -14.59858398 16.60073242 -14.58862305 15.68432617 C-14.56348633 14.76393555 -14.53834961 13.84354492 -14.51245117 12.89526367 C-14.49214844 11.49147461 -14.49214844 11.49147461 -14.47143555 10.05932617 C-14.43615071 7.7540504 -14.38685399 5.44995307 -14.32495117 3.14526367 C-13.66495117 3.14526367 -13.00495117 3.14526367 -12.32495117 3.14526367 C-12.32495117 2.48526367 -12.32495117 1.82526367 -12.32495117 1.14526367 C-8.16577532 0.36135986 -4.23008489 0.01494297 0 0 Z " fill="#E84360" transform="translate(66.324951171875,53.854736328125)"/>
<path d="M0 0 C1.15466766 -0.0033284 2.30933533 -0.0066568 3.49899292 -0.01008606 C5.91403814 -0.0151085 8.32909019 -0.01749585 10.74414062 -0.01733398 C14.45453951 -0.01954607 18.16465256 -0.03782002 21.875 -0.05664062 C24.22916565 -0.05957036 26.58333271 -0.06155796 28.9375 -0.0625 C30.04884308 -0.06968552 31.16018616 -0.07687103 32.3052063 -0.08427429 C33.83853104 -0.07965935 33.83853104 -0.07965935 35.40283203 -0.07495117 C36.30373566 -0.07637619 37.20463928 -0.07780121 38.13284302 -0.07926941 C40.3046875 0.16796875 40.3046875 0.16796875 42.3046875 2.16796875 C43.7610064 9.61137646 39.31832551 15.18014294 35.3046875 21.16796875 C34.41523438 22.55628906 34.41523438 22.55628906 33.5078125 23.97265625 C28.95988898 28.50445239 21.04062186 27.30110399 14.92578125 27.30859375 C13.09829494 27.3269333 11.27082066 27.34650466 9.44335938 27.3671875 C6.60225108 27.39598664 3.76191746 27.41796534 0.9206543 27.41845703 C-14.08349254 27.4367883 -27.37839916 28.10825799 -38.6953125 39.16796875 C-39.3553125 39.16796875 -40.0153125 39.16796875 -40.6953125 39.16796875 C-40.9634375 39.97234375 -41.2315625 40.77671875 -41.5078125 41.60546875 C-42.095625 43.36890625 -42.095625 43.36890625 -42.6953125 45.16796875 C-43.07429688 46.32232422 -43.07429688 46.32232422 -43.4609375 47.5 C-43.72390625 48.29792969 -43.986875 49.09585938 -44.2578125 49.91796875 C-44.50660156 50.6759375 -44.75539063 51.43390625 -45.01171875 52.21484375 C-45.6953125 54.16796875 -45.6953125 54.16796875 -46.6953125 56.16796875 C-47.82919207 67.77889557 -47.16535954 77.77519865 -41.0703125 87.85546875 C-26.07233564 102.458762 -8.52209329 100.6149433 11.07885742 100.45288086 C14.29926936 100.43221435 17.51790655 100.44813917 20.73828125 100.46875 C21.72477158 100.4502449 22.7112619 100.43173981 23.72764587 100.41267395 C30.41802554 100.4844084 30.41802554 100.4844084 33.01573181 102.48707581 C34.37060547 104.09912109 34.37060547 104.09912109 36.3046875 107.16796875 C36.80355469 107.76222656 37.30242187 108.35648437 37.81640625 108.96875 C41.18893004 113.30485202 43.01558494 117.63219009 43.3046875 123.16796875 C42.4921875 125.66796875 42.4921875 125.66796875 40.3046875 127.16796875 C33.02738935 128.2997666 25.87670236 128.25019983 18.52734375 128.1171875 C17.3208165 128.09831985 16.11428925 128.07945221 14.87120056 128.06001282 C12.33050588 128.01831327 9.78985912 127.97359597 7.24926758 127.92602539 C3.38306739 127.85575737 -0.48314313 127.80138931 -4.34960938 127.74804688 C-6.82814186 127.70539557 -9.30665842 127.66180685 -11.78515625 127.6171875 C-12.93024155 127.60249924 -14.07532684 127.58781097 -15.25511169 127.57267761 C-29.79839164 127.2648851 -43.32269817 123.92795276 -54.2578125 113.79296875 C-55.0621875 112.92671875 -55.8665625 112.06046875 -56.6953125 111.16796875 C-57.20449219 110.73613281 -57.71367188 110.30429688 -58.23828125 109.859375 C-69.43625252 99.99388544 -75.95047345 83.86172936 -76.96875 69.2421875 C-77.43873002 54.84535186 -75.25201919 40.54288878 -65.6953125 29.16796875 C-65.00566406 28.33136719 -64.31601563 27.49476562 -63.60546875 26.6328125 C-59.76606828 22.14078338 -59.76606828 22.14078338 -57.6953125 20.16796875 C-57.0353125 20.16796875 -56.3753125 20.16796875 -55.6953125 20.16796875 C-55.6953125 19.50796875 -55.6953125 18.84796875 -55.6953125 18.16796875 C-49.25049275 11.70609921 -40.87415538 7.92187286 -32.6953125 4.16796875 C-31.95152344 3.81476562 -31.20773438 3.4615625 -30.44140625 3.09765625 C-21.15662753 -0.89538011 -9.91176925 0.0101091 0 0 Z M-57.6953125 23.16796875 C-58.33210938 23.7815625 -58.96890625 24.39515625 -59.625 25.02734375 C-70.14313664 35.96620586 -75.02673825 51.17279993 -74.78833008 66.15429688 C-73.91735326 85.00945908 -65.20376262 100.45176701 -51.5390625 113.17578125 C-39.27886499 123.43703351 -25.34488414 125.48290988 -9.9140625 125.36328125 C-8.49060262 125.35954481 -7.06714014 125.35670082 -5.64367676 125.35470581 C-1.92171966 125.347119 1.80007797 125.32751394 5.52197266 125.30529785 C9.32973067 125.28473189 13.13751479 125.27568125 16.9453125 125.265625 C24.3985097 125.24426264 31.85157614 125.2101876 39.3046875 125.16796875 C40.38867665 123.27930378 40.38867665 123.27930378 41.3046875 121.16796875 C40.68432611 119.08313724 40.68432611 119.08313724 39.34765625 117.09375 C38.89455078 116.34416016 38.44144531 115.59457031 37.97460938 114.82226562 C37.48541016 114.04947266 36.99621094 113.27667969 36.4921875 112.48046875 C35.77579102 111.30387695 35.77579102 111.30387695 35.04492188 110.10351562 C32.93679273 106.43769558 32.93679273 106.43769558 30.3046875 103.16796875 C28.79266181 103.06100326 27.27577062 103.02175795 25.76000977 103.01025391 C24.79132462 102.99999176 23.82263947 102.98972961 22.82460022 102.97915649 C21.76744308 102.97185516 20.71028595 102.96455383 19.62109375 102.95703125 C17.39126902 102.92893705 15.16145142 102.90027245 12.93164062 102.87109375 C9.40991611 102.83000411 5.88832099 102.79312793 2.36645508 102.76660156 C-1.0281148 102.73880276 -4.42207515 102.69290132 -7.81640625 102.64453125 C-8.85534531 102.64127838 -9.89428436 102.63802551 -10.96470642 102.63467407 C-22.20085573 102.44798089 -32.8551004 99.48972956 -41.29296875 91.69140625 C-49.55322304 82.24389829 -51.72844068 71.47352903 -50.93359375 59.20166016 C-49.75671022 49.15715214 -44.26303443 39.80773702 -36.5625 33.390625 C-25.19656888 25.29190405 -12.97089451 25.0698675 0.54296875 25.203125 C3.04891445 25.20984824 5.5548371 25.21291047 8.06079102 25.21459961 C9.77418208 25.22523569 11.48754442 25.25210223 13.20043945 25.29467773 C23.21027138 25.89262021 23.21027138 25.89262021 31.94091797 21.98706055 C33.72105682 19.44476645 35.02902515 16.98940751 36.3046875 14.16796875 C37.11659366 13.04795229 37.94674907 11.94062778 38.8046875 10.85546875 C40.60178395 7.63567094 40.18355503 6.61983663 39.3046875 3.16796875 C31.74084936 3.07444469 24.17707268 3.00379265 16.61278439 2.96072006 C13.09866046 2.94002581 9.58493793 2.91205106 6.07104492 2.86621094 C-19.71821621 2.53885175 -38.55567033 4.09501523 -57.6953125 23.16796875 Z " fill="#F9F9F9" transform="translate(95.6953125,3.83203125)"/>
<path d="M0 0 C1.59112769 3.18225539 1.33732786 5.45805748 1 9 C-0.04288195 11.25885634 -1.27390125 13.33076361 -2.55859375 15.4609375 C-5.80567158 21.1807223 -8.5916806 27.55540796 -10 34 C-10.66 34 -11.32 34 -12 34 C-12.15855469 34.65484375 -12.31710938 35.3096875 -12.48046875 35.984375 C-14.11623806 42.38285385 -16.25757615 48.32557481 -18.9140625 54.37109375 C-19.83068749 56.59011756 -20.50182909 58.65859671 -21 61 C-21.66 61 -22.32 61 -23 61 C-23.226875 62.258125 -23.45375 63.51625 -23.6875 64.8125 C-24.96512388 70.59831098 -27.40409285 75.70172895 -30 81 C-30.31582031 81.65871094 -30.63164062 82.31742187 -30.95703125 82.99609375 C-32.8171729 86.8171729 -32.8171729 86.8171729 -34 88 C-38.28356071 88.33685178 -42.57989785 88.3250041 -46.875 88.375 C-48.69064453 88.43107422 -48.69064453 88.43107422 -50.54296875 88.48828125 C-51.70183594 88.49988281 -52.86070312 88.51148438 -54.0546875 88.5234375 C-55.65546143 88.5531665 -55.65546143 88.5531665 -57.28857422 88.58349609 C-60 88 -60 88 -61.77294922 85.66113281 C-62.17787598 84.78295898 -62.58280273 83.90478516 -63 83 C-63.52078125 81.97648437 -64.0415625 80.95296875 -64.578125 79.8984375 C-68.23342317 72.19498201 -71.41280888 64.43976475 -74.29931641 56.41723633 C-77.62655192 47.18160905 -81.29876257 38.09093639 -85 29 C-85.48726562 27.79730469 -85.97453125 26.59460938 -86.4765625 25.35546875 C-88.2566826 21.01437831 -90.0680436 16.80885374 -92.3125 12.6875 C-94.19021863 9.06077732 -94.40997871 6.09978711 -94 2 C-93.67 1.34 -93.34 0.68 -93 0 C-88.87501462 -0.02892385 -84.75005515 -0.04677267 -80.625 -0.0625 C-78.8615625 -0.07506836 -78.8615625 -0.07506836 -77.0625 -0.08789062 C-75.38027344 -0.09272461 -75.38027344 -0.09272461 -73.6640625 -0.09765625 C-72.10872803 -0.10551147 -72.10872803 -0.10551147 -70.52197266 -0.11352539 C-68 0 -68 0 -66 1 C-64.80816732 3.69588348 -63.72344154 6.36940671 -62.6875 9.125 C-62.37699707 9.93598145 -62.06649414 10.74696289 -61.74658203 11.58251953 C-59.37604489 17.83745776 -57.26366078 24.15347637 -55.1875 30.51171875 C-51.72703808 40.84375878 -51.72703808 40.84375878 -46 50 C-45.566875 49.030625 -45.13375 48.06125 -44.6875 47.0625 C-43 44 -43 44 -40 43 C-38.77030122 39.48809191 -38.77030122 39.48809191 -38 36 C-36.39652692 40.81041923 -38.85376475 44.56767531 -40.6875 49.125 C-41.04005859 50.05699219 -41.39261719 50.98898438 -41.75585938 51.94921875 C-42.10841797 52.83480469 -42.46097656 53.72039062 -42.82421875 54.6328125 C-43.30507935 55.85315186 -43.30507935 55.85315186 -43.7956543 57.09814453 C-45 59 -45 59 -47.13598633 59.77294922 C-48.0586731 59.88533936 -48.0586731 59.88533936 -49 60 C-49.77127569 58.00017055 -50.5419965 56.00012709 -51.3125 54 C-51.74175781 52.88625 -52.17101562 51.7725 -52.61328125 50.625 C-53.54972175 48.17706539 -54.47525081 45.72493278 -55.390625 43.26904297 C-56.92203752 39.18210471 -58.52017557 35.12418877 -60.13671875 31.0703125 C-60.71956229 29.60162648 -61.30223995 28.13287462 -61.88476562 26.6640625 C-62.791758 24.37890646 -63.69978988 22.09418591 -64.6105957 19.81054688 C-65.49739769 17.58585014 -66.37992126 15.35949671 -67.26171875 13.1328125 C-67.53666672 12.44639679 -67.81161469 11.75998108 -68.09489441 11.05276489 C-70 6.22731408 -70 6.22731408 -70 4 C-76.6 4.33 -83.2 4.66 -90 5 C-89.443125 6.27230469 -88.88625 7.54460938 -88.3125 8.85546875 C-83.90355924 18.99739449 -79.68276516 29.17525682 -75.828125 39.54174805 C-73.78060451 45.03397905 -71.58580489 50.44823461 -69.31591797 55.85229492 C-67.05667329 61.25645848 -64.8712156 66.68997451 -62.6875 72.125 C-62.23310547 73.24648437 -61.77871094 74.36796875 -61.31054688 75.5234375 C-60.88193359 76.59078125 -60.45332031 77.658125 -60.01171875 78.7578125 C-59.43103638 80.19858154 -59.43103638 80.19858154 -58.83862305 81.66845703 C-58 84 -58 84 -58 86 C-47.605 85.505 -47.605 85.505 -37 85 C-35.85144531 82.18339844 -34.70289063 79.36679688 -33.51953125 76.46484375 C-26.25507443 58.66232068 -18.98719775 40.8614258 -11.5625 23.125 C-11.29627838 22.48714569 -11.03005676 21.84929138 -10.75576782 21.19210815 C-10.00748397 19.40053186 -9.2557751 17.61038724 -8.50390625 15.8203125 C-7.88237671 14.33942139 -7.88237671 14.33942139 -7.24829102 12.82861328 C-5.92972974 9.84076838 -4.46053559 6.92107117 -3 4 C-9.93 4 -16.86 4 -24 4 C-24.66 6.31 -25.32 8.62 -26 11 C-26.54598328 12.47869195 -27.11790455 13.94832755 -27.7265625 15.40234375 C-28.190625 16.51899414 -28.190625 16.51899414 -28.6640625 17.65820312 C-29.13972656 18.78645508 -29.13972656 18.78645508 -29.625 19.9375 C-30.11226562 21.10635742 -30.11226562 21.10635742 -30.609375 22.29882812 C-31.40278124 24.20066956 -32.20090317 26.10054256 -33 28 C-34.62935904 25.50803912 -35.01482361 24.20840252 -34.80078125 21.19921875 C-33.89116215 17.5651795 -32.64810468 14.26248522 -31.1875 10.8125 C-30.68605469 9.60207031 -30.18460938 8.39164063 -29.66796875 7.14453125 C-27.41418048 2.89558615 -25.49636359 1.49878786 -21 0 C-18.36996837 -0.25561862 -15.76060763 -0.46353935 -13.125 -0.625 C-12.06345703 -0.70234375 -12.06345703 -0.70234375 -10.98046875 -0.78125 C-7.16383707 -1.02289893 -3.67239804 -1.15896972 0 0 Z " fill="#DCDADA" transform="translate(248,41)"/>
<path d="M0 0 C1.10774529 -0.00306656 1.10774529 -0.00306656 2.23786926 -0.00619507 C4.67958311 -0.0092039 7.12062225 0.00927545 9.56225586 0.02832031 C11.25711398 0.03137768 12.95197461 0.03325397 14.64683533 0.03399658 C18.19857398 0.03860017 21.75008598 0.05302896 25.30175781 0.07519531 C29.86062645 0.10349925 34.41931665 0.11440892 38.97826481 0.11887741 C42.47747085 0.12302862 45.97664061 0.13284325 49.47582817 0.1447525 C51.15719753 0.15046014 52.83857039 0.15521721 54.51994514 0.15901947 C56.86622408 0.16587351 59.21236024 0.17950129 61.55859375 0.1953125 C62.60672241 0.19698929 62.60672241 0.19698929 63.67602539 0.19869995 C68.48520884 0.24174993 68.48520884 0.24174993 70.71459961 1.35644531 C72.05974958 5.39189523 71.93802094 9.13043677 71.96459961 13.35644531 C71.98522461 14.17628906 72.00584961 14.99613281 72.02709961 15.84082031 C72.03483398 17.02417969 72.03483398 17.02417969 72.04272461 18.23144531 C72.05207031 18.95074219 72.06141602 19.67003906 72.07104492 20.41113281 C71.59735839 22.99629329 70.77201796 23.74248941 68.71459961 25.35644531 C66.41767883 25.75517273 66.41767883 25.75517273 63.69238281 25.78881836 C62.67155106 25.80861252 61.6507193 25.82840668 60.59895325 25.84880066 C58.94883492 25.85838554 58.94883492 25.85838554 57.26538086 25.86816406 C55.57375069 25.89509087 55.57375069 25.89509087 53.84794617 25.92256165 C50.24103551 25.97680384 46.63425823 26.01060566 43.02709961 26.04394531 C40.58372162 26.07710602 38.14036126 26.1115945 35.69702148 26.14746094 C29.70286016 26.23504128 23.70931407 26.29499366 17.71459961 26.35644531 C17.71459961 33.94644531 17.71459961 41.53644531 17.71459961 49.35644531 C22.30108398 49.30423828 22.30108398 49.30423828 26.98022461 49.25097656 C29.94229193 49.22757895 32.90434896 49.20936351 35.86645508 49.19165039 C37.9247702 49.17656581 39.98305319 49.15609544 42.04125977 49.13012695 C45.00016205 49.09372946 47.95863928 49.07671565 50.91772461 49.06347656 C51.83765198 49.04799271 52.75757935 49.03250885 53.7053833 49.01655579 C60.00503954 49.01489709 60.00503954 49.01489709 63.30029297 50.60107422 C65.07499241 52.80374796 65.19375982 53.92573078 65.14038086 56.73535156 C65.1278125 57.9931543 65.1278125 57.9931543 65.11499023 59.27636719 C65.08598633 60.14841797 65.05698242 61.02046875 65.02709961 61.91894531 C65.01743164 62.79486328 65.00776367 63.67078125 64.99780273 64.57324219 C64.88368755 71.01826943 64.88368755 71.01826943 63.71459961 73.35644531 C48.53459961 73.68644531 33.35459961 74.01644531 17.71459961 74.35644531 C17.60132063 87.40002971 17.60132063 87.40002971 18.71459961 100.35644531 C19.33212097 100.36009094 19.94964233 100.36373657 20.58587646 100.36749268 C27.01002714 100.40928561 33.43346122 100.47860861 39.85717773 100.56396484 C42.25489131 100.59219997 44.6526984 100.61340177 47.05053711 100.62744141 C50.49633758 100.64883503 53.94101056 100.69546912 57.38647461 100.74707031 C58.99604034 100.74891327 58.99604034 100.74891327 60.63812256 100.75079346 C62.13922577 100.7803714 62.13922577 100.7803714 63.6706543 100.81054688 C64.55001648 100.81942932 65.42937866 100.82831177 66.33538818 100.83746338 C69.51171525 101.53032167 70.7353264 102.82313215 72.71459961 105.35644531 C72.92163086 108.66894531 72.92163086 108.66894531 72.52709961 112.35644531 C72.40979492 113.57332031 72.29249023 114.79019531 72.17163086 116.04394531 C71.82368429 118.56581448 71.41606644 120.91656067 70.71459961 123.35644531 C69.39459961 123.68644531 68.07459961 124.01644531 66.71459961 124.35644531 C67.70459961 122.87144531 67.70459961 122.87144531 68.71459961 121.35644531 C68.71459961 115.74644531 68.71459961 110.13644531 68.71459961 104.35644531 C51.22459961 104.02644531 33.73459961 103.69644531 15.71459961 103.35644531 C15.71459961 93.12644531 15.71459961 82.89644531 15.71459961 72.35644531 C30.56459961 71.69644531 45.41459961 71.03644531 60.71459961 70.35644531 C61.04459961 64.41644531 61.37459961 58.47644531 61.71459961 52.35644531 C59.67767944 52.36430054 59.67767944 52.36430054 57.59960938 52.37231445 C52.58089858 52.39035917 47.56219068 52.40187537 42.54345703 52.41137695 C40.36767088 52.41641839 38.19188814 52.42325138 36.01611328 52.43188477 C32.89606894 52.44395869 29.77606922 52.44967536 26.65600586 52.45410156 C25.18726768 52.46184349 25.18726768 52.46184349 23.68885803 52.46974182 C22.33757057 52.46985512 22.33757057 52.46985512 20.95898438 52.4699707 C20.16178482 52.47219131 19.36458527 52.47441193 18.54322815 52.47669983 C16.71459961 52.35644531 16.71459961 52.35644531 15.71459961 51.35644531 C15.62692849 49.28382455 15.60764088 47.20824237 15.61694336 45.13378906 C15.61944092 43.9993335 15.62193848 42.86487793 15.62451172 41.69604492 C15.63361572 40.24335205 15.64271973 38.79065918 15.65209961 37.29394531 C15.67272461 32.69457031 15.69334961 28.09519531 15.71459961 23.35644531 C32.87459961 23.02644531 50.03459961 22.69644531 67.71459961 22.35644531 C67.71459961 16.08644531 67.71459961 9.81644531 67.71459961 3.35644531 C58.23112397 3.33388049 48.74766607 3.31552219 39.26416969 3.30463314 C34.86091746 3.29940776 30.4576845 3.29231634 26.05444336 3.28100586 C21.80750717 3.27016477 17.56058955 3.26416587 13.31364059 3.26156807 C11.69087812 3.25971603 10.06811669 3.25609963 8.44536209 3.25071526 C6.17782622 3.24348863 3.91036774 3.24245506 1.64282227 3.24291992 C0.35042633 3.24069931 -0.9419696 3.2384787 -2.27352905 3.2361908 C-5.20844069 3.14664282 -5.20844069 3.14664282 -7.28540039 4.35644531 C-7.28540039 42.96644531 -7.28540039 81.57644531 -7.28540039 121.35644531 C-6.62540039 121.35644531 -5.96540039 121.35644531 -5.28540039 121.35644531 C-5.28540039 122.01644531 -5.28540039 122.67644531 -5.28540039 123.35644531 C18.14459961 123.35644531 41.57459961 123.35644531 65.71459961 123.35644531 C65.71459961 123.68644531 65.71459961 124.01644531 65.71459961 124.35644531 C56.37878169 124.37959939 47.04297364 124.39737608 37.70713329 124.40825748 C33.3722908 124.41347958 29.03746792 124.42056507 24.70263672 124.43188477 C20.52053446 124.44273749 16.33845109 124.44872723 12.15633583 124.45132256 C10.5595196 124.45317249 8.96270443 124.45678486 7.36589622 124.46217537 C5.13209154 124.46941741 2.89836528 124.47043491 0.66455078 124.4699707 C-1.24406487 124.47330162 -1.24406487 124.47330162 -3.1912384 124.47669983 C-6.28540039 124.35644531 -6.28540039 124.35644531 -9.28540039 123.35644531 C-10.23649845 116.94310944 -10.43939023 110.69269503 -10.4465332 104.21459961 C-10.45149811 103.12585037 -10.45646301 102.03710114 -10.46157837 100.9153595 C-10.47610881 97.33712115 -10.48298333 93.75892698 -10.48852539 90.18066406 C-10.49428015 87.68821716 -10.50003785 85.19577026 -10.50579834 82.70332336 C-10.51627936 77.49093419 -10.52214237 72.27856033 -10.52563477 67.06616211 C-10.52941393 61.70900392 -10.54357215 56.35198216 -10.56665039 50.99487305 C-10.59410947 44.52120771 -10.60703817 38.04767561 -10.60897064 31.57395363 C-10.6120036 29.10631003 -10.62005362 26.63866743 -10.63315582 24.17105675 C-10.65013221 20.7309847 -10.64835767 17.2914148 -10.6418457 13.85131836 C-10.65106049 12.82738983 -10.66027527 11.8034613 -10.66976929 10.74850464 C-10.66420013 9.81355667 -10.65863098 8.8786087 -10.65289307 7.91532898 C-10.65435963 7.10255839 -10.65582619 6.28978781 -10.65733719 5.45238781 C-9.62104886 -0.38731602 -4.94593764 -0.06541394 0 0 Z " fill="#FDFDFD" transform="translate(538.285400390625,4.6435546875)"/>
<path d="M0 0 C1.01047069 3.14368659 0.80576126 4.85386689 0 8 C-1.17841214 21.36725714 -0.53370189 34.52658227 8.37890625 45.26171875 C16.71290672 54.19817708 27.21683146 59.78913529 39.5859375 60.30078125 C41.1821781 60.32021947 42.77868075 60.32375754 44.375 60.3125 C45.63062744 60.30404053 45.63062744 60.30404053 46.91162109 60.29541016 C57.79898013 60.08151728 66.72807075 57.19708523 74.63671875 49.3828125 C76.71404791 46.99001502 77.993043 45.02087099 79 42 C78.45859375 41.74476562 77.9171875 41.48953125 77.359375 41.2265625 C74.54508212 39.76350296 71.91789308 38.09007412 69.25 36.375 C68.26515625 35.74335937 67.2803125 35.11171875 66.265625 34.4609375 C65.51796875 33.97882813 64.7703125 33.49671875 64 33 C63.71125 33.61746094 63.4225 34.23492187 63.125 34.87109375 C60.69395812 39.47150286 56.89075349 41.20728649 52.125 42.75 C43.96723268 44.93102789 38.28085607 44.1733302 31 40 C26.78655711 37.08177105 23.07425432 34.2369898 22 29 C22.33 27.35 22.66 25.7 23 24 C43.46 24 63.92 24 85 24 C85.495 22.515 85.495 22.515 86 21 C86.495 22.485 86.495 22.485 87 24 C84.7766119 26.2233881 84.07694479 26.3605016 81.0859375 26.8515625 C80.32539063 26.98046875 79.56484375 27.109375 78.78125 27.2421875 C77.9871875 27.36851563 77.193125 27.49484375 76.375 27.625 C75.57320313 27.7590625 74.77140625 27.893125 73.9453125 28.03125 C71.96472516 28.36134789 69.98250325 28.68161083 68 29 C70.00952119 31.94598261 70.00952119 31.94598261 72.875 33.9375 C75.83008156 35.41504078 77.74187041 37.61980936 80 40 C80.33 40.33 80.66 40.66 81 41 C81.50555334 44.03332007 81.55281116 46.12965718 79.87109375 48.77734375 C74.47013711 55.22182726 69.22227209 59.54328409 61.125 61.8125 C60.3832251 62.02116699 59.6414502 62.22983398 58.87719727 62.44482422 C45.33983486 65.96083587 32.73193571 64.53017339 20 59 C16.62054345 56.98477166 13.83143899 54.72005733 11 52 C10.36707031 51.443125 9.73414063 50.88625 9.08203125 50.3125 C1.29155978 43.13662863 -3.90330653 32.86711145 -4.3984375 22.2109375 C-4.40626264 20.59895839 -4.39839751 18.98682829 -4.375 17.375 C-4.38660156 16.56804687 -4.39820313 15.76109375 -4.41015625 14.9296875 C-4.3847122 9.70517564 -3.92955317 3.92955317 0 0 Z M26 27 C25.67 27.66 25.34 28.32 25 29 C26.02872065 30.28133549 27.07372438 31.54960397 28.125 32.8125 C28.70507812 33.52019531 29.28515625 34.22789063 29.8828125 34.95703125 C34.45223202 39.36626817 38.76339736 40.41603028 45 40.375 C46.175625 40.38273437 47.35125 40.39046875 48.5625 40.3984375 C54.95635401 39.65733169 58.77824076 36.6908436 63 32 C63.66 31.01 64.32 30.02 65 29 C61.21157527 26.47438352 58.21466671 26.74608427 53.83203125 26.8046875 C53.03721848 26.8075174 52.2424057 26.81034729 51.42350769 26.81326294 C48.88635162 26.82445295 46.34954928 26.84955509 43.8125 26.875 C42.09180198 26.88503134 40.37109841 26.89415692 38.65039062 26.90234375 C34.43345757 26.92438839 30.21678875 26.95890994 26 27 Z " fill="#FBFBFB" transform="translate(255,68)"/>
<path d="M0 0 C2.44419243 3.59673846 2.12305664 7.56159777 2.19140625 11.80859375 C2.22105469 12.70126953 2.25070312 13.59394531 2.28125 14.51367188 C2.35192052 16.71623652 2.40462564 18.91774506 2.44140625 21.12109375 C3.57320313 21.18167969 4.705 21.24226563 5.87109375 21.3046875 C7.3528777 21.38909292 8.83464785 21.47374092 10.31640625 21.55859375 C11.06277344 21.59791016 11.80914062 21.63722656 12.578125 21.67773438 C18.21484375 22.0078125 18.21484375 22.0078125 20.44140625 23.12109375 C21.53437634 26.40000403 21.7137372 29.04483426 21.81640625 32.49609375 C21.86539063 33.61757813 21.914375 34.7390625 21.96484375 35.89453125 C21.26478605 40.20981228 19.85649045 41.44285078 16.44140625 44.12109375 C13.60266615 44.4888062 11.42320474 44.60740179 8.62890625 44.43359375 C7.93603516 44.41103516 7.24316406 44.38847656 6.52929688 44.36523438 C4.83239052 44.30672036 3.13660764 44.21704855 1.44140625 44.12109375 C1.55961196 49.62050974 1.68385746 55.1197434 1.8137207 60.61889648 C1.85705247 62.48995241 1.89872882 64.36104744 1.9387207 66.23217773 C1.99646574 68.92053006 2.06014806 71.6086859 2.125 74.296875 C2.14171249 75.13446854 2.15842499 75.97206207 2.17564392 76.83503723 C2.26054686 80.15782663 2.38391298 82.94861393 3.44140625 86.12109375 C6.74140625 86.12109375 10.04140625 86.12109375 13.44140625 86.12109375 C13.77140625 86.78109375 14.10140625 87.44109375 14.44140625 88.12109375 C11.03945755 90.21460064 8.38868213 90.30051538 4.44140625 90.12109375 C4.44140625 89.46109375 4.44140625 88.80109375 4.44140625 88.12109375 C3.65765625 87.89421875 2.87390625 87.66734375 2.06640625 87.43359375 C-0.55859375 86.12109375 -0.55859375 86.12109375 -1.70605469 84.09838867 C-2.85726024 80.0780703 -2.84474155 76.33374016 -2.82421875 72.171875 C-2.82708893 70.8911335 -2.82708893 70.8911335 -2.83001709 69.58451843 C-2.83137404 67.78672998 -2.82771189 65.98893156 -2.81933594 64.19116211 C-2.80858972 61.43255828 -2.81926798 58.67459982 -2.83203125 55.91601562 C-2.83071034 54.16796731 -2.82814938 52.4199194 -2.82421875 50.671875 C-2.82826721 49.84480545 -2.83231567 49.0177359 -2.83648682 48.16560364 C-2.78853923 42.35103923 -2.78853923 42.35103923 -0.55859375 40.12109375 C2.35076205 39.97591631 5.16135225 39.93478579 8.06640625 39.99609375 C8.86820312 40.00511719 9.67 40.01414063 10.49609375 40.0234375 C12.47799148 40.04703152 14.45973606 40.0829031 16.44140625 40.12109375 C16.77140625 35.17109375 17.10140625 30.22109375 17.44140625 25.12109375 C16.16523438 25.14429687 14.8890625 25.1675 13.57421875 25.19140625 C11.90495375 25.21016204 10.23568245 25.22836244 8.56640625 25.24609375 C7.30376953 25.27123047 7.30376953 25.27123047 6.015625 25.296875 C4.80712891 25.30654297 4.80712891 25.30654297 3.57421875 25.31640625 C2.83059082 25.32687988 2.08696289 25.33735352 1.32080078 25.34814453 C-0.55859375 25.12109375 -0.55859375 25.12109375 -2.55859375 23.12109375 C-2.87744141 20.96630859 -2.87744141 20.96630859 -2.97265625 18.33203125 C-3.03066406 16.92050781 -3.03066406 16.92050781 -3.08984375 15.48046875 C-3.12078125 14.495625 -3.15171875 13.51078125 -3.18359375 12.49609375 C-3.24160156 11.00722656 -3.24160156 11.00722656 -3.30078125 9.48828125 C-3.39522036 7.03286433 -3.47800256 4.57700418 -3.55859375 2.12109375 C-9.16859375 1.79109375 -14.77859375 1.46109375 -20.55859375 1.12109375 C-20.53539062 2.68601562 -20.5121875 4.2509375 -20.48828125 5.86328125 C-20.46952652 7.90754733 -20.451326 9.95181855 -20.43359375 11.99609375 C-20.41683594 13.02863281 -20.40007812 14.06117187 -20.3828125 15.125 C-20.37636719 16.11113281 -20.36992187 17.09726562 -20.36328125 18.11328125 C-20.35280762 19.0244873 -20.34233398 19.93569336 -20.33154297 20.87451172 C-20.55859375 23.12109375 -20.55859375 23.12109375 -22.55859375 25.12109375 C-25.5625 25.5 -25.5625 25.5 -29.12109375 25.68359375 C-33.15946321 25.54334601 -33.15946321 25.54334601 -36.55859375 27.12109375 C-36.79341068 29.30402149 -36.97222698 31.49312549 -37.12109375 33.68359375 C-37.24677734 35.47990234 -37.24677734 35.47990234 -37.375 37.3125 C-37.43558594 38.23933594 -37.49617188 39.16617188 -37.55859375 40.12109375 C-38.21859375 39.79109375 -38.87859375 39.46109375 -39.55859375 39.12109375 C-39.58544787 36.80865583 -39.60492216 34.49613105 -39.62109375 32.18359375 C-39.63269531 30.89582031 -39.64429688 29.60804687 -39.65625 28.28125 C-39.55859375 25.12109375 -39.55859375 25.12109375 -38.55859375 24.12109375 C-36.03263116 23.88455852 -33.52752168 23.69935683 -30.99609375 23.55859375 C-29.9297168 23.49381836 -29.9297168 23.49381836 -28.84179688 23.42773438 C-27.08097463 23.32137598 -25.31981055 23.22070529 -23.55859375 23.12109375 C-23.5335376 22.45988525 -23.50848145 21.79867676 -23.48266602 21.11743164 C-23.36706273 18.1392707 -23.24417621 15.16145455 -23.12109375 12.18359375 C-23.08177734 11.14267578 -23.04246094 10.10175781 -23.00195312 9.02929688 C-22.96005859 8.03994141 -22.91816406 7.05058594 -22.875 6.03125 C-22.83834229 5.11480713 -22.80168457 4.19836426 -22.76391602 3.25415039 C-22.55859375 1.12109375 -22.55859375 1.12109375 -21.55859375 0.12109375 C-18.4720914 -0.3140153 -15.35619423 -0.44207238 -12.24609375 -0.62890625 C-10.94381836 -0.73138672 -10.94381836 -0.73138672 -9.61523438 -0.8359375 C-6.1310203 -1.04450903 -3.31976941 -1.1403788 0 0 Z " fill="#DEDEDD" transform="translate(491.55859375,19.87890625)"/>
<path d="M0 0 C2 2 2 2 2.5625 4.875 C2.42312702 10.90604874 -1.7557795 16.16004503 -5 21 C-5.88945312 22.38832031 -5.88945312 22.38832031 -6.796875 23.8046875 C-11.34479852 28.33648364 -19.26406564 27.13313524 -25.37890625 27.140625 C-27.20639256 27.15896455 -29.03386684 27.17853591 -30.86132812 27.19921875 C-33.70243642 27.22801789 -36.54277004 27.24999659 -39.3840332 27.25048828 C-54.38818004 27.26881955 -67.68308666 27.94028924 -79 39 C-79.66 39 -80.32 39 -81 39 C-81.268125 39.804375 -81.53625 40.60875 -81.8125 41.4375 C-82.204375 42.613125 -82.59625 43.78875 -83 45 C-83.25265625 45.76957031 -83.5053125 46.53914063 -83.765625 47.33203125 C-84.02859375 48.12996094 -84.2915625 48.92789063 -84.5625 49.75 C-84.81128906 50.50796875 -85.06007813 51.2659375 -85.31640625 52.046875 C-86 54 -86 54 -87 56 C-88.13387957 67.61092682 -87.47004704 77.6072299 -81.375 87.6875 C-78.26315366 90.71745564 -74.78511292 92.99557846 -71.14453125 95.3515625 C-69 97 -69 97 -68 100 C-75.77131803 98.20661892 -81.85463938 93.04571123 -86.375 86.625 C-92.57815214 76.33810603 -93.96560042 65.06332971 -91.12109375 53.39453125 C-86.80077999 41.2320638 -79.49834998 32.54850562 -67.78125 26.9375 C-59.65978662 23.87723844 -50.85126269 23.88384123 -42.28231812 24.13986206 C-38.99150478 24.23670817 -35.70060403 24.27914236 -32.40869141 24.32128906 C-30.71526935 24.35718739 -29.0221994 24.41820464 -27.33056641 24.50390625 C-17.71459916 25.20865072 -17.71459916 25.20865072 -9.20861816 21.5255127 C-4.77560125 16.53321341 -1 10.78733956 -1 4 C-17.83 3.67 -34.66 3.34 -52 3 C-52 2.67 -52 2.34 -52 2 C-50.13081909 1.96241577 -50.13081909 1.96241577 -48.22387695 1.92407227 C-43.59259074 1.82977089 -38.96144656 1.7296059 -34.33032227 1.62768555 C-32.32742642 1.58442261 -30.32449575 1.54274153 -28.3215332 1.50268555 C-25.43950921 1.44477338 -22.55765912 1.38113953 -19.67578125 1.31640625 C-18.78288895 1.29969376 -17.88999664 1.28298126 -16.970047 1.26576233 C-11.2912453 1.13100234 -5.61490236 -0.45526235 0 0 Z " fill="#F5F4F4" transform="translate(136,4)"/>
<path d="M0 0 C8.28369832 6.26469107 10.72469619 15.11284619 12.23999023 24.9831543 C13.50345271 34.98412238 13.11150314 45.12581034 12.9921875 55.18359375 C12.97710028 57.41861069 12.96341909 59.65363757 12.95117188 61.88867188 C12.91851684 67.29970072 12.86864361 72.71034893 12.8046875 78.12109375 C11.4846875 78.45109375 10.1646875 78.78109375 8.8046875 79.12109375 C8.79921906 78.14962151 8.79921906 78.14962151 8.79364014 77.15852356 C8.75152239 70.35996827 8.68197549 63.56206981 8.59716797 56.76391602 C8.56910653 54.23370972 8.54781903 51.70341817 8.53369141 49.1730957 C8.51205605 45.51599951 8.46529956 41.85991251 8.4140625 38.203125 C8.41283386 37.08903763 8.41160522 35.97495026 8.41033936 34.82710266 C8.2141397 24.07976025 6.12849315 13.31678103 -1.1953125 5.12109375 C-7.75215164 -0.36835297 -15.20817964 -2.23663734 -23.6328125 -1.81640625 C-32.57157199 -0.84663517 -39.88664873 2.00502911 -47.1953125 7.12109375 C-48.1853125 7.12109375 -49.1753125 7.12109375 -50.1953125 7.12109375 C-50.1953125 4.81109375 -50.1953125 2.50109375 -50.1953125 0.12109375 C-56.7953125 -0.20890625 -63.3953125 -0.53890625 -70.1953125 -0.87890625 C-70.1953125 -1.20890625 -70.1953125 -1.53890625 -70.1953125 -1.87890625 C-62.86197917 -1.87890625 -55.52864583 -1.87890625 -48.1953125 -1.87890625 C-47.5353125 -1.21890625 -46.8753125 -0.55890625 -46.1953125 0.12109375 C-41.91797478 -0.13813884 -38.23136167 -2.14881807 -34.38671875 -3.890625 C-22.22644596 -9.37466959 -11.3635433 -6.68198573 0 0 Z " fill="#D5D5D5" transform="translate(428.1953125,45.87890625)"/>
<path d="M0 0 C1.010625 0.763125 2.02125 1.52625 3.0625 2.3125 C3.0625 2.9725 3.0625 3.6325 3.0625 4.3125 C3.619375 4.498125 4.17625 4.68375 4.75 4.875 C10.63573158 8.53369801 13.847424 15.95523188 16.0625 22.3125 C17.3665991 28.94167042 17.16357875 35.57391646 17.0625 42.3125 C15.5775 42.8075 15.5775 42.8075 14.0625 43.3125 C13.89234375 42.04535156 13.7221875 40.77820313 13.546875 39.47265625 C11.9981492 26.86224902 11.9981492 26.86224902 7.0625 15.3125 C6.64226562 14.6215625 6.22203125 13.930625 5.7890625 13.21875 C0.06543716 4.74398983 -9.00260393 -0.58224821 -18.9375 -2.6875 C-29.9826973 -3.91066111 -41.89691618 -3.66426109 -51.26953125 2.9609375 C-53.27149018 4.66204545 -55.11686122 6.42004948 -56.9375 8.3125 C-58.5875747 10.00055596 -60.24320036 11.66803271 -61.9375 13.3125 C-62.5975 13.3125 -63.2575 13.3125 -63.9375 13.3125 C-64.22367187 14.034375 -64.50984375 14.75625 -64.8046875 15.5 C-65.50657133 17.24260813 -66.23594415 18.97474104 -67.0078125 20.6875 C-71.00947997 30.6472057 -70.32256932 40.77344879 -69.9375 51.3125 C-71.98823051 48.23640423 -72.1875041 47.61224696 -72.16796875 44.14453125 C-72.16603516 43.33306641 -72.16410156 42.52160156 -72.16210938 41.68554688 C-72.14986328 40.84056641 -72.13761719 39.99558594 -72.125 39.125 C-72.12435547 38.29935547 -72.12371094 37.47371094 -72.12304688 36.62304688 C-72.08626467 31.43675622 -71.67163972 26.44583079 -70.9375 21.3125 C-70.834375 20.44625 -70.73125 19.58 -70.625 18.6875 C-69.6720721 15.39556726 -67.94977195 13.07218725 -65.9375 10.3125 C-65.07125 9.075 -65.07125 9.075 -64.1875 7.8125 C-47.39876714 -10.84164762 -20.83460561 -12.28145173 0 0 Z " fill="#DBDAD9" transform="translate(325.9375,46.6875)"/>
<path d="M0 0 C0 3.61226576 -0.71071271 4.25312407 -2.9375 7 C-3.57300781 7.79019531 -4.20851563 8.58039063 -4.86328125 9.39453125 C-5.92095703 10.68423828 -5.92095703 10.68423828 -7 12 C-7.75667969 12.93199219 -8.51335938 13.86398438 -9.29296875 14.82421875 C-10.83318886 16.71530978 -12.37867308 18.60212699 -13.9296875 20.484375 C-15.13198792 21.94528343 -16.32810798 23.41141001 -17.5078125 24.890625 C-19.40742986 27.25618624 -21.23122034 29.18167313 -23.625 31.0625 C-26.20522055 33.16741676 -27.3531182 35.13585774 -29 38 C-31.0625 40.3125 -31.0625 40.3125 -33 42 C-33.66 42 -34.32 42 -35 42 C-35.33 43.32 -35.66 44.64 -36 46 C-34.44104004 46.029729 -34.44104004 46.029729 -32.85058594 46.06005859 C-28.98885164 46.13622124 -25.1274889 46.224922 -21.26611328 46.31738281 C-19.59594059 46.35562857 -17.92568677 46.39048915 -16.25537109 46.421875 C-13.85224443 46.46762161 -11.44967416 46.52559925 -9.046875 46.5859375 C-8.30193787 46.59748871 -7.55700073 46.60903992 -6.78948975 46.62094116 C-0.04232827 46.81234518 -0.04232827 46.81234518 3 49 C4.77704337 54.7942384 3.97969915 61.12180507 3 67 C1.68 67 0.36 67 -1 67 C-1 62.05 -1 57.1 -1 52 C-14.86 51.67 -28.72 51.34 -43 51 C-42.00611138 44.04277965 -41.15854922 42.36424773 -36.375 38.0625 C-35.26905705 37.01489286 -34.16488139 35.96541678 -33.0625 34.9140625 C-32.53011719 34.41293945 -31.99773438 33.91181641 -31.44921875 33.39550781 C-29.05221722 31.08734394 -26.92023558 28.57801947 -24.765625 26.046875 C-22.6056658 23.54285151 -20.36512007 21.12002302 -18.125 18.6875 C-13.85761885 14.0298096 -9.88492613 9.20072603 -6.0078125 4.21484375 C-4.07278121 2.08028589 -2.64962375 1.0515323 0 0 Z " fill="#D5D4D4" transform="translate(695,60)"/>
<path d="M0 0 C1.23115036 -0.00637985 2.46230072 -0.0127597 3.73075867 -0.01933289 C5.70445183 -0.02100212 5.70445183 -0.02100212 7.71801758 -0.02270508 C9.09231094 -0.02592146 10.46660396 -0.02928581 11.84089661 -0.03279114 C14.71132197 -0.03875876 17.58171731 -0.04063325 20.45214844 -0.04003906 C24.13089093 -0.03993704 27.80944214 -0.05364061 31.48813915 -0.07081127 C34.32168974 -0.08191882 37.15519368 -0.08395873 39.98876381 -0.08342934 C41.34555031 -0.08460935 42.70233802 -0.08903236 44.05910301 -0.0967617 C45.95213717 -0.10654504 47.84522782 -0.10242359 49.73828125 -0.09765625 C50.81494553 -0.09908127 51.8916098 -0.10050629 53.00090027 -0.10197449 C55.67504883 0.14526367 55.67504883 0.14526367 58.67504883 2.14526367 C59.19385646 6.10385917 58.80826006 10.10176687 58.61254883 14.08276367 C58.58483398 15.19329102 58.55711914 16.30381836 58.52856445 17.44799805 C58.45992187 19.04417969 58.45992187 19.04417969 58.38989258 20.67260742 C58.32983032 22.13815063 58.32983032 22.13815063 58.26855469 23.63330078 C57.67504883 26.14526367 57.67504883 26.14526367 55.97869873 27.7789917 C53.17396062 29.44245413 51.47078191 29.51971009 48.22314453 29.51757812 C47.13133377 29.52380692 46.03952301 29.53003571 44.91462708 29.53645325 C43.73857407 29.5272435 42.56252106 29.51803375 41.35083008 29.50854492 C40.13485641 29.50904343 38.91888275 29.50954193 37.6660614 29.51005554 C35.09132251 29.50771441 32.51658137 29.49798368 29.94189453 29.48144531 C26.0200527 29.45795833 22.09889576 29.46087157 18.17700195 29.4675293 C15.67244064 29.46194871 13.16788218 29.45483645 10.66333008 29.44604492 C8.9144323 29.44741203 8.9144323 29.44741203 7.13020325 29.44880676 C-8.9021457 29.31082872 -8.9021457 29.31082872 -13.36914062 25.31811523 C-14.46864955 22.81859303 -14.67034431 21.10570685 -14.61791992 18.37963867 C-14.60825195 17.49018555 -14.59858398 16.60073242 -14.58862305 15.68432617 C-14.56348633 14.76393555 -14.53834961 13.84354492 -14.51245117 12.89526367 C-14.49214844 11.49147461 -14.49214844 11.49147461 -14.47143555 10.05932617 C-14.43615071 7.7540504 -14.38685399 5.44995307 -14.32495117 3.14526367 C-13.66495117 3.14526367 -13.00495117 3.14526367 -12.32495117 3.14526367 C-12.32495117 2.48526367 -12.32495117 1.82526367 -12.32495117 1.14526367 C-8.16577532 0.36135986 -4.23008489 0.01494297 0 0 Z M-11.32495117 3.14526367 C-11.35382629 6.79108054 -11.37170702 10.43686831 -11.38745117 14.08276367 C-11.39583008 15.12368164 -11.40420898 16.16459961 -11.4128418 17.23706055 C-11.41606445 18.22641602 -11.41928711 19.21577148 -11.42260742 20.23510742 C-11.42784424 21.15155029 -11.43308105 22.06799316 -11.43847656 23.01220703 C-11.56416329 25.1288939 -11.56416329 25.1288939 -10.32495117 26.14526367 C-8.30544908 26.24461515 -6.28244202 26.27325875 -4.26049805 26.2746582 C-2.96245239 26.27781036 -1.66440674 26.28096252 -0.32702637 26.28421021 C1.10074904 26.28242043 2.52852414 26.28036947 3.95629883 26.27807617 C5.4097902 26.27874925 6.86328147 26.27971931 8.31677246 26.28097534 C11.36671009 26.28245213 14.41661849 26.28029837 17.46655273 26.27563477 C21.38435442 26.26993748 25.30208761 26.27321658 29.21988678 26.27920723 C32.22235637 26.28281336 35.2248096 26.28167402 38.22727966 26.27907944 C39.67223621 26.27841031 41.11719421 26.27923809 42.56214905 26.28155899 C44.57829766 26.28408632 46.59445145 26.27955419 48.6105957 26.2746582 C49.7600769 26.27386261 50.90955811 26.27306702 52.09387207 26.27224731 C54.60590389 26.43824455 54.60590389 26.43824455 55.67504883 25.14526367 C55.76205225 23.51053485 55.78205945 21.87212312 55.77270508 20.23510742 C55.76948242 19.24575195 55.76625977 18.25639648 55.76293945 17.23706055 C55.75456055 16.19614258 55.74618164 15.15522461 55.73754883 14.08276367 C55.73303711 13.03797852 55.72852539 11.99319336 55.72387695 10.91674805 C55.71204795 8.32619707 55.69556572 5.73575809 55.67504883 3.14526367 C52.3809699 1.49822421 48.72094065 2.00385508 45.10083008 2.01245117 C44.23240982 2.0111319 43.36398956 2.00981262 42.46925354 2.00845337 C39.64198255 2.00653388 36.81480976 2.01287167 33.98754883 2.02026367 C32.55901581 2.02159302 32.55901581 2.02159302 31.10162354 2.02294922 C16.93573121 2.03853293 2.81776454 2.27494271 -11.32495117 3.14526367 Z " fill="#FBF9FA" transform="translate(66.324951171875,53.854736328125)"/>
<path d="M0 0 C1.62890625 0.82421875 1.62890625 0.82421875 3.81640625 2.32421875 C3.81640625 2.98421875 3.81640625 3.64421875 3.81640625 4.32421875 C4.47640625 4.32421875 5.13640625 4.32421875 5.81640625 4.32421875 C12.81444187 15.73792984 11.59840672 28.66644997 11.62890625 41.57421875 C11.65207982 43.88023168 11.67745102 46.18622363 11.70507812 48.4921875 C11.76755772 54.10294298 11.80018744 59.71314663 11.81640625 65.32421875 C17.09640625 65.65421875 22.37640625 65.98421875 27.81640625 66.32421875 C27.81640625 66.65421875 27.81640625 66.98421875 27.81640625 67.32421875 C25.04531318 67.37814272 22.27526807 67.4178533 19.50390625 67.44921875 C18.71822266 67.46597656 17.93253906 67.48273438 17.12304688 67.5 C16.36572266 67.50644531 15.60839844 67.51289063 14.828125 67.51953125 C14.13162842 67.53000488 13.43513184 67.54047852 12.7175293 67.55126953 C10.81640625 67.32421875 10.81640625 67.32421875 7.81640625 65.32421875 C5.67948185 55.87200826 6.75286834 45.3819525 6.91235352 35.73950195 C7.07052273 25.46099418 6.8665916 15.89303417 2.81640625 6.32421875 C2.15640625 6.32421875 1.49640625 6.32421875 0.81640625 6.32421875 C0.81640625 5.66421875 0.81640625 5.00421875 0.81640625 4.32421875 C-5.78359375 4.32421875 -12.38359375 4.32421875 -19.18359375 4.32421875 C-19.18359375 4.98421875 -19.18359375 5.64421875 -19.18359375 6.32421875 C-20.84638702 7.33064625 -22.51342859 8.33007282 -24.18359375 9.32421875 C-26.99801813 13.54585531 -27.29676664 17.30886525 -27.38891602 22.2980957 C-27.40886124 23.25871414 -27.42880646 24.21933258 -27.44935608 25.20906067 C-27.46606857 26.23319565 -27.48278107 27.25733063 -27.5 28.3125 C-27.5207811 29.37083542 -27.54156219 30.42917084 -27.56297302 31.51957703 C-27.62822478 34.89189316 -27.68724012 38.26428549 -27.74609375 41.63671875 C-27.78930215 43.92644009 -27.83291718 46.2161538 -27.87695312 48.50585938 C-27.98388116 54.1118992 -28.08569238 59.71801441 -28.18359375 65.32421875 C-28.51359375 65.32421875 -28.84359375 65.32421875 -29.18359375 65.32421875 C-29.28535799 58.20764435 -29.35521204 51.09125895 -29.40332031 43.97412109 C-29.4233844 41.55510445 -29.45064218 39.13613599 -29.48535156 36.71728516 C-29.53409716 33.23197507 -29.55661539 29.74730859 -29.57421875 26.26171875 C-29.59486389 25.18744629 -29.61550903 24.11317383 -29.63677979 23.00634766 C-29.63887613 15.92574688 -28.77465078 10.092868 -23.73590088 4.80493164 C-16.93966036 -1.13058892 -8.77045403 -2.71429078 0 0 Z " fill="#C2C1C1" transform="translate(407.18359375,60.67578125)"/>
<path d="M0 0 C1.00836914 -0.01063477 1.00836914 -0.01063477 2.03710938 -0.02148438 C6.3711465 0.03446645 7.22967431 0.22967431 10.4375 3.4375 C4.1675 3.7675 -2.1025 4.0975 -8.5625 4.4375 C-8.65337891 6.80228516 -8.65337891 6.80228516 -8.74609375 9.21484375 C-8.83047987 11.26823943 -8.91512883 13.32162431 -9 15.375 C-9.03931641 16.41591797 -9.07863281 17.45683594 -9.11914062 18.52929688 C-9.16103516 19.51865234 -9.20292969 20.50800781 -9.24609375 21.52734375 C-9.28275146 22.44378662 -9.31940918 23.36022949 -9.35717773 24.30444336 C-9.5625 26.4375 -9.5625 26.4375 -10.5625 27.4375 C-13.08846259 27.67403523 -15.59357207 27.85923692 -18.125 28 C-19.19137695 28.06477539 -19.19137695 28.06477539 -20.27929688 28.13085938 C-22.04011912 28.23721777 -23.8012832 28.33788846 -25.5625 28.4375 C-25.58935412 30.74993792 -25.60882841 33.0624627 -25.625 35.375 C-25.63660156 36.66277344 -25.64820313 37.95054688 -25.66015625 39.27734375 C-25.92782549 42.30048403 -25.92782549 42.30048403 -24.5625 43.4375 C-22.23263877 43.64718751 -19.89805964 43.80565389 -17.5625 43.9375 C-10.67361111 44.32638889 -10.67361111 44.32638889 -9.5625 45.4375 C-9.4697167 46.81910115 -9.44502957 48.20538038 -9.44897461 49.59008789 C-9.44905014 50.47092545 -9.44912567 51.351763 -9.44920349 52.2592926 C-9.45436478 53.21657761 -9.45952606 54.17386261 -9.46484375 55.16015625 C-9.4662587 56.13536728 -9.46767365 57.11057831 -9.46913147 58.11534119 C-9.47474867 61.24359143 -9.48730407 64.37177123 -9.5 67.5 C-9.50501278 69.61523334 -9.50957607 71.73046781 -9.51367188 73.84570312 C-9.52472369 79.04299296 -9.54147854 84.24024145 -9.5625 89.4375 C-10.2225 89.1075 -10.8825 88.7775 -11.5625 88.4375 C-11.8925 75.2375 -12.2225 62.0375 -12.5625 48.4375 C-16.8525 47.7775 -21.1425 47.1175 -25.5625 46.4375 C-29.8304816 42.1695184 -29.52074559 38.2831173 -29.5625 32.4375 C-29.1875 28.875 -29.1875 28.875 -27.5625 26.4375 C-24.61662241 25.28960337 -21.68279434 24.86136977 -18.5625 24.4375 C-16.89406251 24.11314642 -15.22686218 23.78215553 -13.5625 23.4375 C-13.52286133 22.88288086 -13.48322266 22.32826172 -13.44238281 21.75683594 C-13.25124309 19.23189077 -13.03217628 16.71011593 -12.8125 14.1875 C-12.7196875 12.87845703 -12.7196875 12.87845703 -12.625 11.54296875 C-12.27953403 7.77163189 -11.97677158 5.10376159 -9.95703125 1.85546875 C-6.55994173 -0.15618459 -3.92211524 -0.05750902 0 0 Z " fill="#FDFDFD" transform="translate(478.5625,16.5625)"/>
<path d="M0 0 C0.65725571 -0.00540298 1.31451141 -0.01080597 1.99168396 -0.01637268 C4.16426642 -0.02887953 6.33552842 -0.0123564 8.50805664 0.00561523 C10.01876393 0.00546027 11.52947163 0.00397173 13.04017639 0.00120544 C16.20697599 -0.00017947 19.3733232 0.01239282 22.54003906 0.03515625 C26.59670083 0.06351741 30.65260946 0.06081166 34.70932674 0.04806614 C37.82949743 0.04110563 40.9494945 0.0489028 44.06964302 0.06132317 C45.5651438 0.0658358 47.06066324 0.0661761 48.5561657 0.06225777 C50.64850821 0.05934238 52.73981919 0.07586687 54.83203125 0.09765625 C56.6171537 0.10576073 56.6171537 0.10576073 58.43833923 0.11402893 C61.76173444 0.53751867 63.18714239 1.08088588 65.48071289 3.50170898 C65.77713858 6.21400402 65.86132479 8.49910631 65.73071289 11.18920898 C65.71266602 11.89110352 65.69461914 12.59299805 65.67602539 13.31616211 C65.62897502 15.04526334 65.55723162 16.77366104 65.48071289 18.50170898 C64.49071289 18.50170898 63.50071289 18.50170898 62.48071289 18.50170898 C62.49231445 17.75405273 62.50391602 17.00639648 62.51586914 16.23608398 C62.52489258 15.25124023 62.53391602 14.26639648 62.54321289 13.25170898 C62.55481445 12.27717773 62.56641602 11.30264648 62.57836914 10.29858398 C62.56985951 7.26744668 62.56985951 7.26744668 61.48071289 3.50170898 C39.04071289 3.50170898 16.60071289 3.50170898 -6.51928711 3.50170898 C-6.51928711 8.45170898 -6.51928711 13.40170898 -6.51928711 18.50170898 C1.07071289 18.83170898 8.66071289 19.16170898 16.48071289 19.50170898 C16.15071289 20.16170898 15.82071289 20.82170898 15.48071289 21.50170898 C9.10116684 22.91938589 -2.58099447 24.77023301 -8.34350586 21.45092773 C-10.14915494 18.45750948 -9.95277773 15.45341574 -9.89428711 12.06420898 C-9.90202148 10.74549805 -9.90975586 9.42678711 -9.91772461 8.06811523 C-9.15333415 1.22607122 -6.63334259 0.00092682 0 0 Z " fill="#FDFDFD" transform="translate(632.519287109375,41.498291015625)"/>
<path d="M0 0 C2 2 2 2 2.5625 4.875 C2.42312702 10.90604874 -1.7557795 16.16004503 -5 21 C-5.59296875 21.92554687 -6.1859375 22.85109375 -6.796875 23.8046875 C-10.94433159 27.93743679 -17.31411021 27.11382291 -22.89170837 27.11329651 C-24.14994164 27.10555458 -24.14994164 27.10555458 -25.43359375 27.09765625 C-26.7504995 27.09553383 -26.7504995 27.09553383 -28.0940094 27.09336853 C-30.87520882 27.08780821 -33.65632526 27.07526321 -36.4375 27.0625 C-38.33268112 27.05747987 -40.22786352 27.05291786 -42.12304688 27.04882812 C-46.74872948 27.0378518 -51.37435071 27.02061482 -56 27 C-56 26.34 -56 25.68 -56 25 C-50.6748345 24.07667262 -45.7427114 23.99689276 -40.35546875 24.2109375 C-37.83233314 24.25703034 -35.30924508 24.28976204 -32.78588867 24.32128906 C-31.05829716 24.35699987 -29.33103617 24.41775436 -27.60522461 24.50390625 C-17.84545861 25.2203747 -17.84545861 25.2203747 -9.19244385 21.5255127 C-4.7488728 16.53924225 -1 10.78793051 -1 4 C-17.83 3.67 -34.66 3.34 -52 3 C-52 2.67 -52 2.34 -52 2 C-50.13081909 1.96241577 -50.13081909 1.96241577 -48.22387695 1.92407227 C-43.59259074 1.82977089 -38.96144656 1.7296059 -34.33032227 1.62768555 C-32.32742642 1.58442261 -30.32449575 1.54274153 -28.3215332 1.50268555 C-25.43950921 1.44477338 -22.55765912 1.38113953 -19.67578125 1.31640625 C-18.78288895 1.29969376 -17.88999664 1.28298126 -16.970047 1.26576233 C-11.2912453 1.13100234 -5.61490236 -0.45526235 0 0 Z " fill="#F7F7F8" transform="translate(136,4)"/>
<path d="M0 0 C-0.33 0.99 -0.66 1.98 -1 3 C-1.66 3 -2.32 3 -3 3 C-3.309375 3.61875 -3.61875 4.2375 -3.9375 4.875 C-4.625 6.25 -5.3125 7.625 -6 9 C-6.66 9 -7.32 9 -8 9 C-8 9.66 -8 10.32 -8 11 C-8.66 11 -9.32 11 -10 11 C-13.07093541 16.49732636 -13.07093541 16.49732636 -13 30 C10.43 30 33.86 30 58 30 C58 30.66 58 31.32 58 32 C48.79459996 32.06946382 39.58928992 32.12279271 30.38368511 32.15543652 C26.10929301 32.17110272 21.83508002 32.1923582 17.56079102 32.22631836 C13.43702747 32.25887809 9.31343637 32.27684582 5.18955421 32.28463173 C3.61504208 32.29018136 2.04053955 32.30101831 0.46610069 32.31719017 C-1.73675672 32.33892005 -3.93889862 32.34196888 -6.1418457 32.34057617 C-8.02381401 32.35056892 -8.02381401 32.35056892 -9.94380188 32.36076355 C-13 32 -13 32 -14.89445496 30.65229797 C-16.54288043 28.18863528 -16.56151707 25.99485941 -16.75 23.0625 C-16.82734375 22.02222656 -16.9046875 20.98195313 -16.984375 19.91015625 C-16.99810758 17.35246365 -16.76937518 15.41886892 -16 13 C-15.34 13 -14.68 13 -14 13 C-13.76152344 12.43796875 -13.52304687 11.8759375 -13.27734375 11.296875 C-11.71903908 8.49478586 -9.82243325 6.52106593 -7.5625 4.25 C-6.78003906 3.45078125 -5.99757813 2.6515625 -5.19140625 1.828125 C-3 0 -3 0 0 0 Z " fill="#F4F4F4" transform="translate(637,97)"/>
<path d="M0 0 C2.45898655 -0.08076963 4.91533742 -0.14037143 7.375 -0.1875 C8.07367188 -0.21263672 8.77234375 -0.23777344 9.4921875 -0.26367188 C11.5234375 -0.29296875 11.5234375 -0.29296875 15 0 C17.08709919 3.13064878 17.25179248 3.8567286 17.27124023 7.42041016 C17.28142685 8.31208893 17.29161346 9.2037677 17.30210876 10.12246704 C17.30424881 11.08494354 17.30638885 12.04742004 17.30859375 13.0390625 C17.33376946 15.08463807 17.35916724 17.13021092 17.38476562 19.17578125 C17.41341402 22.39468581 17.43743285 25.61354267 17.45629883 28.83251953 C17.47809101 31.94329389 17.51755772 35.05349086 17.55859375 38.1640625 C17.55870956 39.11439362 17.55882538 40.06472473 17.5589447 41.04385376 C17.66592002 48.34668617 18.9228212 54.58749198 22.75 60.875 C25.64920223 63.61313544 28.2657939 64.63557854 32 66 C30.515 66.99 30.515 66.99 29 68 C25.3125 67.125 25.3125 67.125 22 66 C22 65.34 22 64.68 22 64 C21.07885406 63.64051773 21.07885406 63.64051773 20.13909912 63.27377319 C16.08787644 60.86138435 15.17182646 56.36722277 14 52 C13.51761905 48.01170322 13.52987907 44.09854326 13.609375 40.0859375 C13.61503479 38.99028473 13.62069458 37.89463196 13.62652588 36.76577759 C13.64873196 33.30172104 13.69889961 29.83873846 13.75 26.375 C13.77008533 24.0117338 13.78833252 21.64845121 13.8046875 19.28515625 C13.84854519 13.52303021 13.9174633 7.76169653 14 2 C7.07 1.505 7.07 1.505 0 1 C0 0.67 0 0.34 0 0 Z " fill="#AEAEAE" transform="translate(454,60)"/>
<path d="M0 0 C12.87 0 25.74 0 39 0 C40 5 40 5 39 7 C38.34 7 37.68 7 37 7 C36.731875 7.5775 36.46375 8.155 36.1875 8.75 C34.97070811 11.05550043 33.69666121 13.02056192 32 15 C31.34 15 30.68 15 30 15 C29.75378906 15.56460938 29.50757813 16.12921875 29.25390625 16.7109375 C27.78593095 19.39079272 26.0064331 21.37958803 23.9375 23.625 C21.14219542 26.58789167 21.14219542 26.58789167 19 30 C18.34 29.67 17.68 29.34 17 29 C17.639375 28.2575 18.27875 27.515 18.9375 26.75 C20.91251209 24.11665055 21.26414808 23.03538917 22 20 C24.54979584 15.48882275 27.4429245 12.57645552 31.51171875 9.4921875 C33.27568638 7.72359003 33.60835572 6.43341646 34 4 C32.4221875 4.0309375 32.4221875 4.0309375 30.8125 4.0625 C27.67295096 4.01103198 25.03116604 3.73482813 22 3 C22 2.67 22 2.34 22 2 C14.74 1.67 7.48 1.34 0 1 C0 0.67 0 0.34 0 0 Z " fill="#BFBEBE" transform="translate(626,60)"/>
<path d="M0 0 C1.31478333 0.00424484 2.62956665 0.00848969 3.98419189 0.01286316 C7.43658375 0.02417824 10.88858147 0.05352551 14.34082031 0.0869751 C17.88080518 0.11796838 21.42085533 0.13143021 24.9609375 0.14648438 C31.8751593 0.17841207 38.7891231 0.22944106 45.703125 0.29296875 C45.703125 0.62296875 45.703125 0.95296875 45.703125 1.29296875 C35.50645729 1.91568313 25.32438105 2.37139302 15.109375 2.5390625 C13.64661133 2.56403305 13.64661133 2.56403305 12.15429688 2.58950806 C8.14020421 2.65593951 4.12613679 2.71873246 0.11181641 2.76977539 C-2.86837127 2.80926843 -5.84815747 2.86072688 -8.828125 2.9140625 C-10.19197327 2.92668373 -10.19197327 2.92668373 -11.58337402 2.93955994 C-12.84244568 2.96452293 -12.84244568 2.96452293 -14.12695312 2.98999023 C-14.86240356 3.0002977 -15.597854 3.01060516 -16.35559082 3.02122498 C-18.62016542 3.1950533 -18.62016542 3.1950533 -21.296875 5.29296875 C-23.62886888 5.37201939 -25.96520122 5.38095644 -28.296875 5.29296875 C-21.70090949 -1.30299676 -8.61617899 -0.10668741 0 0 Z " fill="#98334D" transform="translate(89.296875,6.70703125)"/>
<path d="M0 0 C2 2 2 2 2.4375 5.125 C1.89277131 9.94973979 0.1756146 13.33238877 -3 17 C-3.99 17.33 -4.98 17.66 -6 18 C-7.20882096 20.00016466 -7.20882096 20.00016466 -8 22 C-8 17.34485634 -5.10687289 14.44752297 -2.53125 10.69140625 C-0.67032812 7.93663675 -0.67032812 7.93663675 -1 4 C-17.83 3.67 -34.66 3.34 -52 3 C-52 2.67 -52 2.34 -52 2 C-50.13081909 1.96241577 -50.13081909 1.96241577 -48.22387695 1.92407227 C-43.59259074 1.82977089 -38.96144656 1.7296059 -34.33032227 1.62768555 C-32.32742642 1.58442261 -30.32449575 1.54274153 -28.3215332 1.50268555 C-25.43950921 1.44477338 -22.55765912 1.38113953 -19.67578125 1.31640625 C-18.78288895 1.29969376 -17.88999664 1.28298126 -16.970047 1.26576233 C-11.2912453 1.13100234 -5.61490236 -0.45526235 0 0 Z " fill="#DEDCE0" transform="translate(136,4)"/>
<path d="M0 0 C1.49249268 0.07855225 1.49249268 0.07855225 3.01513672 0.15869141 C4.6296875 0.23603516 4.6296875 0.23603516 6.27685547 0.31494141 C7.96875 0.41162109 7.96875 0.41162109 9.69482422 0.51025391 C11.39832031 0.59533203 11.39832031 0.59533203 13.13623047 0.68212891 C15.94804051 0.82390084 18.75899703 0.97533952 21.56982422 1.13525391 C21.56982422 1.46525391 21.56982422 1.79525391 21.56982422 2.13525391 C14.30982422 2.13525391 7.04982422 2.13525391 -0.43017578 2.13525391 C-1.09017578 4.44525391 -1.75017578 6.75525391 -2.43017578 9.13525391 C-2.97615906 10.61394585 -3.54808034 12.08358145 -4.15673828 13.53759766 C-4.46611328 14.28203125 -4.77548828 15.02646484 -5.09423828 15.79345703 C-5.41134766 16.545625 -5.72845703 17.29779297 -6.05517578 18.07275391 C-6.38001953 18.85199219 -6.70486328 19.63123047 -7.03955078 20.43408203 C-7.83295702 22.33592346 -8.63107895 24.23579647 -9.43017578 26.13525391 C-11.05647753 23.64796888 -11.44431325 22.34183406 -11.23876953 19.33837891 C-10.31769094 15.68966179 -9.00858504 12.31695256 -7.49267578 8.88525391 C-7.09532227 7.94939453 -7.09532227 7.94939453 -6.68994141 6.99462891 C-3.74286674 0.20831306 -3.74286674 0.20831306 0 0 Z " fill="#C0BEBE" transform="translate(224.43017578125,42.86474609375)"/>
<path d="M0 0 C0.74886475 0.00523682 1.49772949 0.01047363 2.26928711 0.01586914 C3.07817383 0.0190918 3.88706055 0.02231445 4.72045898 0.02563477 C5.5705957 0.03401367 6.42073242 0.04239258 7.29663086 0.05102539 C8.15063477 0.05553711 9.00463867 0.06004883 9.88452148 0.06469727 C12.00108749 0.07652166 14.11761771 0.0944577 16.23413086 0.11352539 C16.23413086 0.44352539 16.23413086 0.77352539 16.23413086 1.11352539 C10.62413086 1.11352539 5.01413086 1.11352539 -0.76586914 1.11352539 C-0.74266602 2.67844727 -0.71946289 4.24336914 -0.69555664 5.85571289 C-0.67680191 7.89997897 -0.65860139 9.94425019 -0.64086914 11.98852539 C-0.62411133 13.02106445 -0.60735352 14.05360352 -0.59008789 15.11743164 C-0.58364258 16.10356445 -0.57719727 17.08969727 -0.57055664 18.10571289 C-0.56008301 19.01691895 -0.54960937 19.928125 -0.53881836 20.86694336 C-0.76586914 23.11352539 -0.76586914 23.11352539 -2.76586914 25.11352539 C-5.76977539 25.49243164 -5.76977539 25.49243164 -9.32836914 25.67602539 C-13.3667386 25.53577765 -13.3667386 25.53577765 -16.76586914 27.11352539 C-17.00068607 29.29645313 -17.17950237 31.48555713 -17.32836914 33.67602539 C-17.45405273 35.47233398 -17.45405273 35.47233398 -17.58227539 37.30493164 C-17.64286133 38.23176758 -17.70344727 39.15860352 -17.76586914 40.11352539 C-18.42586914 39.78352539 -19.08586914 39.45352539 -19.76586914 39.11352539 C-19.79272326 36.80108747 -19.81219755 34.48856269 -19.82836914 32.17602539 C-19.8399707 30.88825195 -19.85157227 29.60047852 -19.86352539 28.27368164 C-19.76586914 25.11352539 -19.76586914 25.11352539 -18.76586914 24.11352539 C-16.23990655 23.87699017 -13.73479707 23.69178848 -11.20336914 23.55102539 C-10.13699219 23.48625 -10.13699219 23.48625 -9.04907227 23.42016602 C-7.28825002 23.31380763 -5.52708594 23.21313693 -3.76586914 23.11352539 C-3.74081299 22.45231689 -3.71575684 21.7911084 -3.68994141 21.10986328 C-3.57433812 18.13170234 -3.4514516 15.1538862 -3.32836914 12.17602539 C-3.28905273 11.13510742 -3.24973633 10.09418945 -3.20922852 9.02172852 C-3.16733398 8.03237305 -3.12543945 7.04301758 -3.08227539 6.02368164 C-3.04561768 5.10723877 -3.00895996 4.1907959 -2.97119141 3.24658203 C-2.71923177 0.62901796 -2.6375192 0.16956262 0 0 Z " fill="#817F80" transform="translate(471.765869140625,19.886474609375)"/>
<path d="M0 0 C0.66 0.33 1.32 0.66 2 1 C0.21427748 2.83947337 -1.57802449 4.67157741 -3.375 6.5 C-3.88289063 7.02464844 -4.39078125 7.54929687 -4.9140625 8.08984375 C-6.23832604 9.43153181 -7.61605865 10.71995815 -9 12 C-9.66 12 -10.32 12 -11 12 C-11.28617187 12.721875 -11.57234375 13.44375 -11.8671875 14.1875 C-12.56907133 15.93010813 -13.29844415 17.66224104 -14.0703125 19.375 C-18.07197997 29.3347057 -17.38506932 39.46094879 -17 50 C-19.05073051 46.92390423 -19.2500041 46.29974696 -19.23046875 42.83203125 C-19.22853516 42.02056641 -19.22660156 41.20910156 -19.22460938 40.37304688 C-19.21236328 39.52806641 -19.20011719 38.68308594 -19.1875 37.8125 C-19.18685547 36.98685547 -19.18621094 36.16121094 -19.18554688 35.31054688 C-19.14876226 30.12391613 -18.72382887 25.13466104 -18 20 C-17.938125 19.154375 -17.87625 18.30875 -17.8125 17.4375 C-16.36930596 13.10791787 -13.11975964 9.09148658 -9.03515625 6.98828125 C-8.36355469 6.66214844 -7.69195312 6.33601563 -7 6 C-5.71983165 4.99564028 -4.46871878 3.95309739 -3.25 2.875 C-2.63640625 2.33617187 -2.0228125 1.79734375 -1.390625 1.2421875 C-0.93171875 0.83226562 -0.4728125 0.42234375 0 0 Z " fill="#ADADAD" transform="translate(273,48)"/>
<path d="M0 0 C16.5 0 33 0 50 0 C50.495 1.485 50.495 1.485 51 3 C44.21874162 2.90778485 37.43784311 2.80048639 30.65698242 2.68261719 C28.34942056 2.64429584 26.04179832 2.60944859 23.73413086 2.578125 C20.42019037 2.53254318 17.10666673 2.47453712 13.79296875 2.4140625 C12.7585112 2.40251129 11.72405365 2.39096008 10.6582489 2.37905884 C9.6974794 2.35918915 8.7367099 2.33931946 7.74682617 2.31884766 C6.47774666 2.29886215 6.47774666 2.29886215 5.18302917 2.2784729 C3 2 3 2 0 0 Z " fill="#96495C" transform="translate(76,107)"/>
<path d="M0 0 C-0.33 0.99 -0.66 1.98 -1 3 C-1.66 3 -2.32 3 -3 3 C-3.309375 3.61875 -3.61875 4.2375 -3.9375 4.875 C-4.625 6.25 -5.3125 7.625 -6 9 C-6.66 9 -7.32 9 -8 9 C-8 9.66 -8 10.32 -8 11 C-8.66 11 -9.32 11 -10 11 C-12.35108558 14.70821628 -12.43155058 18.48605238 -12.625 22.75 C-12.66367187 23.44738281 -12.70234375 24.14476563 -12.7421875 24.86328125 C-12.83598624 26.57510818 -12.91906174 28.28751682 -13 30 C-13.33 30 -13.66 30 -14 30 C-14.66 24.39 -15.32 18.78 -16 13 C-15.34 13 -14.68 13 -14 13 C-13.76152344 12.43796875 -13.52304687 11.8759375 -13.27734375 11.296875 C-11.71903908 8.49478586 -9.82243325 6.52106593 -7.5625 4.25 C-6.78003906 3.45078125 -5.99757813 2.6515625 -5.19140625 1.828125 C-3 0 -3 0 0 0 Z " fill="#CFCFCF" transform="translate(637,97)"/>
<path d="M0 0 C6.75 3.75 6.75 3.75 9 6 C3.375 10 3.375 10 0 10 C0 7.69 0 5.38 0 3 C-6.6 2.67 -13.2 2.34 -20 2 C-20 1.67 -20 1.34 -20 1 C-19.42967041 1.00523682 -18.85934082 1.01047363 -18.27172852 1.01586914 C-15.70199677 1.03658221 -13.13228253 1.0496419 -10.5625 1.0625 C-9.66466797 1.07087891 -8.76683594 1.07925781 -7.84179688 1.08789062 C-6.56079102 1.09272461 -6.56079102 1.09272461 -5.25390625 1.09765625 C-4.46314697 1.10289307 -3.6723877 1.10812988 -2.85766602 1.11352539 C-0.98407311 1.20495909 -0.98407311 1.20495909 0 0 Z " fill="#C3BFBE" transform="translate(378,43)"/>
<path d="M0 0 C0 3.57811631 -0.86465142 4.26675381 -3 7 C-3.33 7.99 -3.66 8.98 -4 10 C-4.66 10 -5.32 10 -6 10 C-6.2475 10.61875 -6.495 11.2375 -6.75 11.875 C-8.20628639 14.35068687 -9.37812506 14.95125002 -12 16 C-12 11.92092669 -10.43302134 10.94256832 -7.6875 8 C-6.48673828 6.700625 -6.48673828 6.700625 -5.26171875 5.375 C-3.53053313 3.55710561 -1.78926671 1.76031418 0 0 Z " fill="#E8E8E8" transform="translate(647,82)"/>
<path d="M0 0 C0.33 0.99 0.66 1.98 1 3 C0.01 4.485 0.01 4.485 -1 6 C-1.3626117 7.92744369 -1.3626117 7.92744369 -1.4140625 10.01171875 C-1.45273437 10.76904297 -1.49140625 11.52636719 -1.53125 12.30664062 C-1.5621875 13.09232422 -1.593125 13.87800781 -1.625 14.6875 C-1.66367187 15.48478516 -1.70234375 16.28207031 -1.7421875 17.10351562 C-1.83632494 19.06863475 -1.91924632 21.0342854 -2 23 C-4.77042109 20.22957891 -4.39796106 18.23466195 -4.625 14.375 C-4.69976562 13.18648437 -4.77453125 11.99796875 -4.8515625 10.7734375 C-4.90054688 9.85820313 -4.94953125 8.94296875 -5 8 C-4.34 8 -3.68 8 -3 8 C-3.33 6.02 -3.66 4.04 -4 2 C-2.68 1.34 -1.36 0.68 0 0 Z " fill="#FCFDFC" transform="translate(50,54)"/>
<path d="M0 0 C0.66 0 1.32 0 2 0 C1.98839844 1.20398437 1.97679687 2.40796875 1.96484375 3.6484375 C1.95546566 5.22395679 1.94636548 6.79947775 1.9375 8.375 C1.92912109 9.1690625 1.92074219 9.963125 1.91210938 10.78125 C1.76959849 15.02392222 1.76959849 15.02392222 3 19 C6.04581269 19.46954261 6.04581269 19.46954261 9.5625 19.625 C11.35880859 19.73714844 11.35880859 19.73714844 13.19140625 19.8515625 C14.11824219 19.90054688 15.04507813 19.94953125 16 20 C16 20.33 16 20.66 16 21 C10.39 21 4.78 21 -1 21 C-0.67 14.07 -0.34 7.14 0 0 Z " fill="#E64F6A" transform="translate(56,58)"/>
<path d="M0 0 C1.65 0 3.3 0 5 0 C2.84637923 2.26096636 0.59025676 4.10839386 -1.9375 5.9375 C-4.87110454 8.10393723 -7.51806021 10.31123189 -10 13 C-10 11.35 -10 9.7 -10 8 C-9.01 7.67 -8.02 7.34 -7 7 C-7 6.01 -7 5.02 -7 4 C-5.68 4 -4.36 4 -3 4 C-3 3.34 -3 2.68 -3 2 C-2.01 2 -1.02 2 0 2 C0 1.34 0 0.68 0 0 Z " fill="#B0475C" transform="translate(61,32)"/>
<path d="M0 0 C-1.44781793 3.44428265 -3.27694609 5.36130962 -6.125 7.75 C-7.21167969 8.67039062 -7.21167969 8.67039062 -8.3203125 9.609375 C-8.87460937 10.06828125 -9.42890625 10.5271875 -10 11 C-10.66 10.67 -11.32 10.34 -12 10 C-10.58426179 6.60812721 -8.95769034 4.90302459 -6 2.75 C-5.29875 2.22921875 -4.5975 1.7084375 -3.875 1.171875 C-2 0 -2 0 0 0 Z " fill="#FBFBFB" transform="translate(274,46)"/>
<path d="M0 0 C0.33 0 0.66 0 1 0 C1.03738281 1.09957031 1.07476562 2.19914062 1.11328125 3.33203125 C1.47210797 11.92150674 2.1828842 19.79670054 5 28 C4.01 28 3.02 28 2 28 C1.86722656 27.32453125 1.73445313 26.6490625 1.59765625 25.953125 C1.42105469 25.06109375 1.24445312 24.1690625 1.0625 23.25 C0.88847656 22.36828125 0.71445312 21.4865625 0.53515625 20.578125 C0.06586231 18.09741886 0.06586231 18.09741886 -0.59375 16.125 C-1.20127196 12.94719281 -0.83036881 9.96442577 -0.5625 6.75 C-0.46066406 5.48671875 -0.35882813 4.2234375 -0.25390625 2.921875 C-0.17011719 1.95765625 -0.08632813 0.9934375 0 0 Z " fill="#E05870" transform="translate(42,61)"/>
<path d="M0 0 C1.1135821 3.34074631 0.94368586 3.83573301 -0.3125 6.9375 C-0.73402344 7.98744141 -0.73402344 7.98744141 -1.1640625 9.05859375 C-2.0353337 11.08206005 -2.9504194 13.06231274 -4 15 C-4.33 15 -4.66 15 -5 15 C-5.76681614 7.33183857 -5.76681614 7.33183857 -3.88671875 4.06640625 C-2.5 2.4375 -2.5 2.4375 0 0 Z " fill="#FDFDFC" transform="translate(385,67)"/>
<path d="M0 0 C-1.34293356 4.51714017 -2.94382764 5.7691052 -7 8 C-8.9451 10.91765 -9.45276317 12.62537285 -10 16 C-10.66 15.67 -11.32 15.34 -12 15 C-10.77292888 8.98735149 -8.42782311 5.25937332 -4 1 C-2 0 -2 0 0 0 Z " fill="#B9B9B7" transform="translate(390,62)"/>
<path d="M0 0 C0.66 0.33 1.32 0.66 2 1 C0.21427748 2.83947337 -1.57802449 4.67157741 -3.375 6.5 C-3.88289063 7.02464844 -4.39078125 7.54929687 -4.9140625 8.08984375 C-6.23832604 9.43153181 -7.61605865 10.71995815 -9 12 C-9.66 12 -10.32 12 -11 12 C-9.49650623 8.33213607 -7.36271208 6.31089607 -4.375 3.75 C-3.14910156 2.69039062 -3.14910156 2.69039062 -1.8984375 1.609375 C-1.27195312 1.07828125 -0.64546875 0.5471875 0 0 Z " fill="#B2B0B1" transform="translate(273,48)"/>
<path d="M0 0 C1.485 0.99 1.485 0.99 3 2 C2.67 2.33 2.34 2.66 2 3 C1.76518307 5.18292774 1.58636677 7.37203174 1.4375 9.5625 C1.31181641 11.35880859 1.31181641 11.35880859 1.18359375 13.19140625 C1.12300781 14.11824219 1.06242187 15.04507813 1 16 C0.34 15.67 -0.32 15.34 -1 15 C-1.02685412 12.68756208 -1.04632841 10.3750373 -1.0625 8.0625 C-1.07410156 6.77472656 -1.08570313 5.48695312 -1.09765625 4.16015625 C-1 1 -1 1 0 0 Z " fill="#999998" transform="translate(453,44)"/>
<path d="M0 0 C6.01338199 3.006691 8.93532042 5.87064084 12 12 C8.60140297 10.53033642 6.35036291 8.61962486 3.75 6 C3.04359375 5.29875 2.3371875 4.5975 1.609375 3.875 C0 2 0 2 0 0 Z " fill="#8A3D51" transform="translate(35,106)"/>
<path d="M0 0 C0.99 0 1.98 0 3 0 C4.80230168 3.82989106 5.19622241 6.78121808 5 11 C3 10 3 10 2.1484375 7.71484375 C1.89320312 6.79832031 1.63796875 5.88179688 1.375 4.9375 C1.11460938 4.01839844 0.85421875 3.09929687 0.5859375 2.15234375 C0.39257812 1.44207031 0.19921875 0.73179688 0 0 Z " fill="#E84D6A" transform="translate(26,87)"/>
<path d="M0 0 C1.32 0.33 2.64 0.66 4 1 C3.67 1.66 3.34 2.32 3 3 C-2.94 3 -8.88 3 -15 3 C-15 2.67 -15 2.34 -15 2 C-10.05 2 -5.1 2 0 2 C0 1.34 0 0.68 0 0 Z " fill="#E34C69" transform="translate(123,24)"/>
<path d="M0 0 C0.33 0.66 0.66 1.32 1 2 C0.0625 4.125 0.0625 4.125 -1 6 C-1.66 6 -2.32 6 -3 6 C-3 6.66 -3 7.32 -3 8 C-4.98 8.99 -4.98 8.99 -7 10 C-5.6062718 5.56541027 -3.39417765 3.12621626 0 0 Z " fill="#F2EFEC" transform="translate(58,37)"/>
<path d="M0 0 C-0.598125 0.28875 -1.19625 0.5775 -1.8125 0.875 C-4.19327792 2.04742026 -4.19327792 2.04742026 -7 4 C-9.33199388 4.07905064 -11.66832622 4.08798769 -14 4 C-10.28835785 0.28835785 -5.09745779 -0.30893684 0 0 Z " fill="#8C4456" transform="translate(75,8)"/>
<path d="M0 0 C1.25541557 3.76624671 0.37061958 5.37188934 -1 9 C-1.66 9 -2.32 9 -3 9 C-2.4140625 2.84765625 -2.4140625 2.84765625 -2 1 C-1.34 0.67 -0.68 0.34 0 0 Z " fill="#A54656" transform="translate(46,52)"/>
<path d="M0 0 C0.66 0.33 1.32 0.66 2 1 C0.02 3.31 -1.96 5.62 -4 8 C-4.99 7.67 -5.98 7.34 -7 7 C-4.69 4.69 -2.38 2.38 0 0 Z " fill="#A64859" transform="translate(45,20)"/>
<path d="M0 0 C-1.28519565 2.86697492 -2.57129254 4.97607712 -5 7 C-5.66 7 -6.32 7 -7 7 C-3.86206897 0 -3.86206897 0 0 0 Z " fill="#BAB6B6" transform="translate(286,62)"/>
<path d="M0 0 C0.66 0.33 1.32 0.66 2 1 C-2.75 5.875 -2.75 5.875 -5 7 C-3.75023244 3.34683329 -3.32901247 2.21934164 0 0 Z " fill="#FDFCF9" transform="translate(63,34)"/>
<path d="M0 0 C0 0.99 0 1.98 0 3 C-2.5 5.1875 -2.5 5.1875 -5 7 C-5.66 6.67 -6.32 6.34 -7 6 C-2.25 1.125 -2.25 1.125 0 0 Z " fill="#C5C5C5" transform="translate(695,60)"/>
<path d="M0 0 C0 0.66 0 1.32 0 2 C-1.96466413 3.06775224 -3.96855359 4.06553465 -6 5 C-6.66 4.67 -7.32 4.34 -8 4 C-3.375 0 -3.375 0 0 0 Z " fill="#FEFEFE" transform="translate(393,43)"/>
<path d="M0 0 C0.33 0 0.66 0 1 0 C1 2.97 1 5.94 1 9 C1.66 9.33 2.32 9.66 3 10 C1.68 10.33 0.36 10.66 -1 11 C-0.67 7.37 -0.34 3.74 0 0 Z " fill="#F3F3F3" transform="translate(530,117)"/>
<path d="M0 0 C0.99 0 1.98 0 3 0 C1.63016497 3.16115776 1.0109362 3.9927092 -2 6 C-1.125 1.125 -1.125 1.125 0 0 Z " fill="#C04F64" transform="translate(35,30)"/>
<path d="M0 0 C0 0.66 0 1.32 0 2 C-2.31 2.33 -4.62 2.66 -7 3 C-7.33 2.34 -7.66 1.68 -8 1 C-5.07175348 0.02391783 -3.04386724 -0.08226668 0 0 Z " fill="#EEEBEA" transform="translate(80,29)"/>
</svg>
